<svg version="1.1" xmlns="http://www.w3.org/2000/svg"><symbol id="Affix" viewBox="0 0 512 512"><path d="M167.5 306L76.5 215c-7 -7 -7 -18 0 -25l22 -22c5 -5 12.5 -6.5 19 -4l68.5 27.5c6 2.5 12.5 1.5 17.5 -2.5l114 -88.5c8.5 -6.5 9 -19 1.5 -26.5l-9.5 -9.5c-7 -7 -7 -18 0 -25l17.5 -17.5c7 -7 18 -7 25 0l29 29l0 0l83 83l0 0.5l29 29c7 7 7 18 0 25l-17.5 17.5c-7 7 -18 7 -25 0l-9.5 -9.5c-7.5 -7.5 -20 -6.5 -26.5 2l-88.5 114c-4 5 -5 12 -2.5 17.5l27.5 68.5c2.5 6.5 1 14 -4 19l-22 22c-7 7 -18 7 -25 0l-78.5 -78.5c-7 -7 -18 -7 -25 0l-102.5 102.5c-7 7 -18 7 -25 0l-16.5 -16.5c-7 -7 -7 -18 0 -25L167.5 306L167.5 306z" style="fill:currentcolor" /></symbol><symbol id="Alert" viewBox="0 0 512 512"><path d="M256 48C141.5 48 48 141.5 48 256s93.5 208 208 208s208 -93.5 208 -208S370.5 48 256 48zm0 320a20 20 0 1 1 20 -20A20 20 0 0 1 256 368zm21.5 -201l-5.5 122a16 16 0 0 1 -32 0l-5.5 -122v0a21.5 21.5 0 1 1 43.5 0z" style="fill:currentcolor" /></symbol><symbol id="Anchor" viewBox="0 0 512 512"><path d="M245 480.5c-13 0 -22.5 -10 -22.5 -23.5V158.5c0 -13.5 10 -23.5 22.5 -23.5c13 0 22.5 10 22.5 23.5v298.5c0 12.5 -10 23.5 -22.5 23.5zM245 490.5C136 490.5 42 410 21.5 299.5c-1.5 -7 1 -14 4.5 -19.5a22.5 22.5 0 0 1 17.5 -8.5h81c13 0 22.5 10 22.5 23.5c0 13.5 -10 23.5 -22.5 23.5h-51c25 74.5 93 125.5 171.5 125.5c78 0 146.5 -51 171.5 -125.5h-51.5c-13 0 -22.5 -10 -22.5 -23.5c0 -13.5 10 -23.5 22.5 -23.5h81c7 0 13 3 17.5 8.5c4.5 5.5 6 12.5 4.5 19.5C448 410 355 490.5 245 490.5zM245 173.5c-41 0 -73.5 -34.5 -73.5 -76C171.5 55 205 21.5 245 21.5c41 0 73.5 34.5 73.5 76c0 42.5 -32.5 76 -73.5 76zm0 -105c-15 0 -28 13.5 -28 29c0 15.5 13 29 28 29c15 0 28 -13.5 28 -29c0 -15.5 -12 -29 -28 -29z" style="fill:currentcolor" /></symbol><symbol id="Avatar" viewBox="0 0 512 512"><path d="M256 42.5c118 0 213.5 95.5 213.5 213.5s-95.5 213.5 -213.5 213.5S42.5 374 42.5 256S138 42.5 256 42.5zm0 42.5c-94 0 -170.5 76.5 -170.5 170.5s76.5 170.5 170.5 170.5s170.5 -76.5 170.5 -170.5s-76.5 -170.5 -170.5 -170.5zm0 298.5c-42 0 -80.5 -17.5 -106.5 -46.5c13 -20 61 -39 106.5 -39s93.5 19 106.5 39C336.5 366.5 298 384 256 384zm0 -234.5c35.5 0 64 28.5 64 64s-28.5 64 -64 64s-64 -28.5 -64 -64s28.5 -64 64 -64z" style="fill:currentcolor" /></symbol><symbol id="Backtop" viewBox="0 0 512 512"><path d="M400 96L112 96c-9 0 -16 7 -16 16s7 16 16 16l288 0c9 0 16 -7 16 -16S409 96 400 96zM267.5 148.5c-1.5 -1.5 -3 -2.5 -5 -3.5c-4 -1.5 -8.5 -1.5 -12 0c-2 1 -3.5 2 -5 3.5l-128 128c-6 6.5 -6 16.5 0 22.5s16.5 6.5 22.5 0L240 198.5L240 416c0 9 7 16 16 16s16 -7 16 -16L272 198.5l100.5 100.5c3 3 7 4.5 11.5 4.5s8 -1.5 11.5 -4.5c6.5 -6 6.5 -16.5 0 -22.5L267.5 148.5z" style="fill:currentcolor" /></symbol><symbol id="Badge" viewBox="0 0 512 512"><path d="M399 188.5c40.5 0 74.5 -33.5 74.5 -74.5c0 -40.5 -33.5 -74.5 -74.5 -74.5c-40.5 0 -74 33.5 -74 74.5c0 40.5 33.5 74.5 74 74.5zM38.5 358c0 36.5 3 67 25 89c22 22 52.5 25.5 89.5 25.5h166.5c36.5 0 67.5 -3.5 89 -25.5c22 -22 25 -52.5 25 -89V212.5a89 89 0 0 1 -30.5 4.5c-1.5 0 -2.5 0 -4 0.5v146.5c0 22.5 -3 45 -15.5 58c-13 13 -36 16 -58.5 16h-178.5c-22 0 -45 -3 -58 -16c-13 -13 -16 -36 -16 -58V188c0 -22.5 3 -45.5 15.5 -58.5c13 -13 36.5 -16 59 -16h148c0 -1.5 0 -3 0.5 -4c0 -10.5 1.5 -21 4.5 -30.5H152.5c-36 0 -67 3.5 -88.5 25.5c-22 22 -25 52.5 -25 88.5z" style="fill:currentcolor" /></symbol><symbol id="Breadcrumbs" viewBox="0 0 512 512"><path d="M82.5 413.5c-6 0 -10 -4 -10 -10V107.5c0 -6 4 -10 10 -10h80c4 0 9 2 12 5L288.5 246c4 5 4 13 0 18.5L173.5 408.5c-3 4 -8 6 -13 6L82.5 413.5zm353.5 -167.5L321 103.5c-5 -6 -14 -8 -20.5 -2l-22.5 18.5c-7 5 -8 15 -2 20.5L369 256L275.5 372c-5 6 -4 16 2 20.5l22.5 18.5c7 5 15 4 20.5 -2L436 266c4 -8 4 -15 0 -19.5z" style="fill:currentcolor" /></symbol><symbol id="Button" viewBox="0 0 512 512"><path d="M416 464H96a48 48 0 0 1 -48 -48V96A48 48 0 0 1 96 48H416a48 48 0 0 1 48 48V416A48 48 0 0 1 416 464z" style="fill:currentcolor" /></symbol><symbol id="Card" viewBox="0 0 512 512"><path d="M446 85.5H66C47 85.5 32 100.5 32 119.5V170.5h448v-51C480 100.5 465 85.5 446 85.5zM446 437.5c19 0 34 -15 34 -34V213.5H32v190C32 422.5 47 437.5 66 437.5h379.5zM96 277.5h127c9.5 0 16 6.5 16 16s-6.5 16 -16 16H94c-8.5 -1 -14 -7.5 -14 -16c0 -9.5 6.5 -16 16 -16zm0 64h64c9.5 0 16 6.5 16 16S169.5 373.5 160 373.5H94c-8.5 -1 -14 -7.5 -14 -16c0 -9.5 6.5 -16 16 -16z" style="fill:currentcolor" /></symbol><symbol id="Carousel" viewBox="0 0 512 512"><path d="M451 25.5H62.5c-20.5 0 -36.5 14 -36.5 32.5v303.5c0 17.5 16 32.5 36.5 32.5h388c19.5 0 36.5 -15.5 36.5 -32.5V58C487 40.5 471.5 25.5 451 25.5zM155.5 82.5c18.5 0 35.5 15.5 35.5 35.5S175 153.5 155.5 153.5c-19.5 -0.5 -35.5 -16 -35.5 -35.5C120 98 136.5 82.5 155.5 82.5L155.5 82.5zM130 352.5c-3.5 0 -7 -1.5 -10 -3.5c-6.5 -5.5 -6.5 -13.5 -1 -20l68.5 -97c5.5 -5.5 13.5 -6.5 20 -2.5l59.5 42l107 -115.5c5.5 -5.5 32 -34.5 47.5 -2.5v197C421 352.5 130 352.5 130 352.5zM58.5 463.5c0 14 11.5 25.5 25.5 25.5s25.5 -11.5 25.5 -25.5s-11.5 -25.5 -25.5 -25.5S58.5 449.5 58.5 463.5L58.5 463.5zM173.5 463.5c0 14 11.5 25.5 25.5 25.5s25.5 -11.5 25.5 -25.5l0 0c0 -14 -11.5 -25.5 -25.5 -25.5S173.5 449.5 173.5 463.5L173.5 463.5zM289 463.5c0 14 11.5 25.5 25.5 25.5s25.5 -11.5 25.5 -25.5s-11.5 -25.5 -25.5 -25.5S289 449.5 289 463.5L289 463.5zM404 463.5c0 14 11.5 25.5 25.5 25.5s25.5 -11.5 25.5 -25.5s-11.5 -25.5 -25.5 -25.5S404 449.5 404 463.5L404 463.5z" style="fill:currentcolor" /></symbol><symbol id="Checkbox" viewBox="0 0 512 512"><path d="M394 71.5H118c-25.5 0 -46 20.5 -46 46v276.5c0 25.5 20.5 46 46 46h276.5c25.5 0 46 -20.5 46 -46V118C440.5 92.5 419.5 71.5 394 71.5zM367 224l-124.5 124.5c-5 5 -13.5 5 -18.5 0L156.5 281.5c-5 -5 -5 -13.5 0 -18.5l14 -14c5 -5 13.5 -5 18.5 0l34.5 34.5c5 5 13.5 5 18.5 0l92 -92c5 -5 13.5 -5 18.5 0l14 14C372 210.5 372 219 367 224z" style="fill:currentcolor" /></symbol><symbol id="Code" viewBox="0 0 512 512"><path d="M409.5 415H102.5c-32.5 0 -58.5 -26 -58.5 -58.5V155.5c0 -32.5 26 -58.5 58.5 -58.5h307c32.5 0 58.5 26 58.5 58.5v201C468 389 442 415 409.5 415z" style="fill:none;stroke:currentcolor;stroke-width:12;stroke-miterlimit:10" /><path d="M386 361h-118c-7 0 -13 -5.5 -13 -13v-8.5c0 -7 5.5 -13 13 -13h118c7 0 13 5.5 13 13v8.5C398.5 355.5 393 361 386 361zM255 264c0 -0.5 -0.5 -0.5 -0.5 -1c0 -0.5 0 -0.5 -0.5 -0.5c-0.5 -1 -1 -2.5 -1.5 -3.5c-0.5 -1 -1 -1.5 -2 -2.5c-1.5 -2 -3.5 -4 -6 -5l-110.5 -64c-6 -3.5 -14.5 -1.5 -18 5L112.5 200c-3.5 6 -1.5 14.5 5 18l91 52.5l-91 52.5c-6 3.5 -8 11.5 -4.5 17.5l4.5 7.5c3.5 6 11.5 8 17.5 4.5l110.5 -64c2.5 -1.5 4.5 -3.5 6 -5.5c1 -1 1.5 -1.5 2 -2.5v0C256.5 275.5 257 269.5 255 264z" style="fill:currentcolor" /></symbol><symbol id="Collapse" viewBox="0 0 512 512"><path d="M359.5 393.5a10 10 0 0 1 0 15l-15 15a10.5 10.5 0 0 1 -15 0L256 350l-73.5 73.5a10.5 10.5 0 0 1 -15 0l-15 -15a10 10 0 0 1 0 -15l88 -88.5a16 16 0 0 1 11.5 -4.5h8a16.5 16.5 0 0 1 11.5 4.5zm-119 -184.5a16.5 16.5 0 0 0 11.5 4.5h8a16 16 0 0 0 11.5 -4.5l88 -88.5a10.5 10.5 0 0 0 0 -15l-15 -15a10.5 10.5 0 0 0 -15 0L256 163.5L182.5 90a10.5 10.5 0 0 0 -15 0l-15 15a10.5 10.5 0 0 0 0 15z" style="fill:currentcolor" /></symbol><symbol id="Colors" viewBox="0 0 512 512"><path d="M344.5 338v61.5c0 45 -37.5 82 -83.5 82C134 481.5 30.5 380.5 30.5 256S134 30.5 261 30.5c84.5 0 160 44 198.5 111.5c16.5 29 23.5 56.5 21 83c0 28.5 -23.5 51 -52.5 51h-21c-34.5 0 -63 27.5 -63 61.5zM246 430a41 41 0 1 0 0 -82a41 41 0 0 0 0 82zm-102.5 -82a41 41 0 1 0 0 -82a41 41 0 0 0 0 82zm-10 -123a41 41 0 1 0 0 -82a41 41 0 0 0 0 82zm102.5 -61.5a41 41 0 1 0 0 -82a41 41 0 0 0 0 82zm112.5 30.5a41 41 0 1 0 0 -82a41 41 0 0 0 0 82z" style="fill:currentcolor" /></symbol><symbol id="Components" viewBox="0 0 512 512"><path d="M464 352H320a16 16 0 0 0 -16 16a48 48 0 0 1 -96 0a16 16 0 0 0 -16 -16H48a16 16 0 0 0 -16 16v64a64 64 0 0 0 64 64H416a64 64 0 0 0 64 -64V368A16 16 0 0 0 464 352zM479.5 188L447.5 68.5C441.5 35.5 417.5 16 384 16H128c-17 0 -31 4.5 -42 14S67.5 52 64.5 68.5L32.5 188A16 16 0 0 0 32 192v48c0 35.5 28.5 80 64 80H416c35.5 0 64 -44.5 64 -80V192A16 16 0 0 0 479.5 188zM440.5 176H320a16 16 0 0 0 -16 16a48 48 0 1 1 -96 0A16 16 0 0 0 192 176H71.5a2 2 0 0 1 -2 -2.5L95.5 75C99.5 56.5 109.5 48 128 48H384c18.5 0 29 8.5 32.5 27l26.5 98.5A2 2 0 0 1 440.5 176z" style="fill:currentcolor" /></symbol><symbol id="Dark" viewBox="0 0 512 512"><path d="M256 176V336a80 80 0 0 0 0 -160zM256 48V176a80 80 0 0 0 0 160V464C141 464 48 371 48 256S141 48 256 48z" style="fill:currentcolor" /><path d="M48 256A208 208 0 1 0 464 256A208 208 0 1 0 48 256z" style="fill:none;stroke:currentcolor;stroke-width:32;stroke-miterlimit:10" /></symbol><symbol id="Date" viewBox="0 0 512 512"><path d="M402.5 490.5l-301 -0.5c-43.5 -4 -77.5 -40.5 -77.5 -85L24.5 146c0 -47 38.5 -85.5 85.5 -85.5l293 0c47 0 85.5 38.5 85.5 85.5L488 405.5C488 452.5 450 490.5 402.5 490.5L402.5 490.5zM109.5 95.5c-28 0 -50.5 22.5 -50.5 50.5l0 259.5c0 28 22.5 50.5 50.5 50.5l293 0c28 0 50.5 -22.5 50.5 -50.5L453.5 146c0 -28 -22.5 -50.5 -50.5 -50.5L109.5 95.5L109.5 95.5zM349.5 145.5c-13 0 -23 -10.5 -23 -23l0 -79.5c0 -13 10.5 -23 23 -23c13 0 23 10.5 23 23L372.5 122C372.5 135 362 145.5 349.5 145.5L349.5 145.5zM158 145.5c-13 0 -23 -10.5 -23 -23l0 -79.5c0 -13 10.5 -23 23 -23c13 0 23 10.5 23 23L181 122C181 135 170.5 145.5 158 145.5L158 145.5zM267.5 397.5l-22 0c-13 0 -23 -10.5 -23 -23c0 -13 10.5 -23 23 -23l22 0c13 0 23 10.5 23 23C290.5 387 280 397.5 267.5 397.5L267.5 397.5zM465.5 226.5L60.5 226.5c-13 0 -23 -10.5 -23 -23c0 -13 10.5 -23 23 -23l405 0c13 0 23 10.5 23 23C488.5 216 478 226.5 465.5 226.5L465.5 226.5zM164 324.5l-22 0c-13 0 -23 -10.5 -23 -23c0 -13 10.5 -23 23 -23l22 0c13 0 23 10.5 23 23C187 314 177 324.5 164 324.5L164 324.5zM267.5 324.5l-22 0c-13 0 -23 -10.5 -23 -23c0 -13 10.5 -23 23 -23l22 0c13 0 23 10.5 23 23S280 324.5 267.5 324.5L267.5 324.5zM370.5 324.5l-22 0c-13 0 -23 -10.5 -23 -23c0 -13 10.5 -23 23 -23l22 0c13 0 23 10.5 23 23C394 314 383.5 324.5 370.5 324.5L370.5 324.5zM164 397.5l-22 0c-13 0 -23 -10.5 -23 -23c0 -13 10.5 -23 23 -23l22 0c13 0 23 10.5 23 23C187 387 177 397.5 164 397.5L164 397.5zM370.5 397.5l-22 0c-13 0 -23 -10.5 -23 -23c0 -13 10.5 -23 23 -23l22 0c13 0 23 10.5 23 23C394 387 383.5 397.5 370.5 397.5L370.5 397.5z" style="fill:currentcolor" /></symbol><symbol id="Descriptions" viewBox="0 0 512 512"><path d="M246 128h181.5a18 18 0 1 0 0 -36.5H246a18 18 0 1 0 0 36.5zM427.5 189h-160a18 18 0 1 0 0 36.5h160a18 18 0 1 0 0 -36.5zM426.5 286.5H71a18 18 0 1 0 0 36.5h355.5a18 18 0 0 0 18 -18a18 18 0 0 0 -17.5 -18zM426.5 384H71a18 18 0 1 0 0 36.5h355.5a18 18 0 0 0 18 -18a18 18 0 0 0 -17.5 -18c0 0 -0.5 0 -0.5 0zM130.5 69a24 24 0 0 0 -22 15l-58 140a17 17 0 0 0 9.5 22a16 16 0 0 0 6.5 1a17 17 0 0 0 16 -11l13.5 -35h69l14.5 35.5a17.5 17.5 0 0 0 16 10.5a17.5 17.5 0 0 0 17 -17.5a20.5 20.5 0 0 0 -1 -6.5L152.5 83.5a24.5 24.5 0 0 0 -22 -15zm-0.5 44.5L153 172H107z" style="fill:currentcolor" /></symbol><symbol id="Divider" viewBox="0 0 512 512"><path d="M400 256L112 256" style="fill:none;stroke:currentcolor;stroke-linecap:round;stroke-linejoin:round;stroke-width:32px" /></symbol><symbol id="Drawer" viewBox="0 0 512 512"><path d="M479.5 268.5l-32 -152C441.5 84 417.5 64 384 64H128c-17 0 -31 4.5 -42 14s-18.5 22.5 -21.5 39l-32 152A16.5 16.5 0 0 0 32 272V384a64 64 0 0 0 64 64H416a64 64 0 0 0 64 -64V272A16.5 16.5 0 0 0 479.5 268.5zm-384 -145.5c0 0 0 0 0 -0.5c3.5 -18.5 14 -27 32.5 -27H384c18.5 0 29 8.5 32.5 27c0 0 0 0.5 0 0.5l27 128a4 4 0 0 1 -4 5H320a16 16 0 0 0 -16 16a48 48 0 1 1 -96 0A16 16 0 0 0 192 256H72.5a4 4 0 0 1 -4 -5zM368 160H144a16 16 0 0 1 0 -32H368a16 16 0 0 1 0 32zM384 224H128a16 16 0 0 1 0 -32H384a16 16 0 0 1 0 32z" style="fill:currentcolor" /></symbol><symbol id="Dropdown" viewBox="0 0 512 512"><path d="M116 260L260 404L404 260M116 108L260 252L404 108" style="fill:none;stroke:currentcolor;stroke-width:48;stroke-linecap:round;stroke-linejoin:round" /></symbol><symbol id="Empty" viewBox="0 0 512 512"><path d="M479.5 268.5l-32 -152C441.5 84 417.5 64 384 64H128c-17 0 -31 4.5 -42 14s-18.5 22.5 -21.5 39l-32 152A16.5 16.5 0 0 0 32 272V384a64 64 0 0 0 64 64H416a64 64 0 0 0 64 -64V272A16.5 16.5 0 0 0 479.5 268.5zm-384 -145.5c0 0 0 0 0 -0.5c3.5 -18.5 14 -27 32.5 -27H384c18.5 0 29 8.5 32.5 27c0 0 0 0.5 0 0.5l27 128a4 4 0 0 1 -4 5H320a16 16 0 0 0 -16 16a48 48 0 1 1 -96 0A16 16 0 0 0 192 256H72.5a4 4 0 0 1 -4 -5z" style="fill:currentcolor" /></symbol><symbol id="Flex" viewBox="0 0 512 512"><path d="M426.5 85.5A85.5 85.5 0 0 1 512 170.5v170.5a85.5 85.5 0 0 1 -85.5 85.5H85.5A85.5 85.5 0 0 1 0 341.5V170.5a85.5 85.5 0 0 1 85.5 -85.5h341.5zm0 32H85.5c-29.5 0 -53.5 24 -53.5 53.5v170.5c0 29.5 24 53.5 53.5 53.5h341.5c29.5 0 53.5 -24 53.5 -53.5V170.5c0 -29.5 -24 -53.5 -53.5 -53.5zm0 53.5v170.5h-85.5V170.5h85.5zm-256 0v170.5H85.5V170.5h85.5zm128 0v170.5H213.5V170.5h85.5z" style="fill:currentcolor" /></symbol><symbol id="Form" viewBox="0 0 512 512"><path d="M400 48L112 48C85.5 48 64 69.5 64 96l0 320c0 26.5 21.5 48 48 48l288 0c26.5 0 48 -21.5 48 -48L448 96C448 69.5 426.5 48 400 48zM336.5 256.5c0 9 -7 16 -16 16L144 272.5c-9 0 -16 -7 -16 -16s7 -16 16 -16l176.5 0C329.5 240.5 336.5 247.5 336.5 256.5zM255.5 128c13.5 0 24 11 24 24c0 13.5 -10.5 24 -24 24s-24 -11 -24 -24C231.5 139 242.5 128 255.5 128zM152 128c13.5 0 24 11 24 24c0 13.5 -10.5 24 -24 24s-24 -11 -24 -24C128 139 138.5 128 152 128zM367.5 368L144 368c-9 0 -16 -7 -16 -16s7 -16 16 -16l223.5 0c9 0 16 7 16 16S376.5 368 367.5 368zM359.5 176c-13.5 0 -24 -11 -24 -24c0 -13 10.5 -24 24 -24s24 11 24 24C383.5 165.5 373 176 359.5 176z" style="fill:currentcolor" /></symbol><symbol id="Grid" viewBox="0 0 512 512"><path d="M269 0H50C22.5 0 0 22.5 0 50v100c0 27.5 22.5 50 50 50h219c27.5 0 50 -22.5 50 -50V50C319 22.5 296.5 0 269 0zM115.5 227.5H50C22.5 227.5 0 250 0 277.5v184.5c0 27.5 22.5 50 50 50h65.5c27.5 0 50 -22.5 50 -50V277.5c0 -27.5 -22.5 -50 -50 -50zm346.5 0H243c-27.5 0 -50 22.5 -50 50v184.5c0 27.5 22.5 50 50 50h219c27.5 0 50 -22.5 50 -50V277.5c0 -27.5 -22.5 -50 -50 -50zm0 -227.5H396.5c-27.5 0 -50 22.5 -50 50v100c0 27.5 22.5 50 50 50h65.5c27.5 0 50 -22.5 50 -50V50c0 -27.5 -22.5 -50 -50 -50z" style="fill:currentcolor" /></symbol><symbol id="Icons" viewBox="0 0 512 512"><path d="M461.5 142c-6.5 -15.5 -16.5 -29.5 -28.5 -41.5c-12 -12 -26 -21 -42 -27.5c-16 -6.5 -33.5 -10 -51 -10c-24.5 0 -48.5 7 -69.5 19.5c-5 3 -9.5 6.5 -14 10c-4.5 -3.5 -9 -7 -14 -10c-21 -12.5 -45 -19.5 -69.5 -19.5c-17.5 0 -35 3.5 -51 10c-15.5 6.5 -30 16 -42 28c-12 12 -21.5 26 -28.5 41.5c-7 16 -10.5 33.5 -10.5 51c0 16.5 3.5 34 10 51.5c5.5 15 14 30 24 45.5c16.5 24.5 39 50 67 76c46.5 43 92.5 72.5 94.5 73.5l12 7.5c5.5 3.5 12 3.5 17.5 0l12 -7.5c2 -1 48 -31 94.5 -73.5c28 -26 50.5 -51.5 67 -76c10.5 -15.5 18.5 -30.5 24 -45.5c7 -17.5 10 -35 10 -51.5c0 -17.5 -3.5 -35 -10.5 -51z" style="fill:currentcolor" /></symbol><symbol id="Images" viewBox="0 0 512 512"><path d="M450.5 112H142c-34 0 -62 27.5 -62 61.5V418.5C80 452.5 108 480 142 480H450c34 0 62 -26 62 -60V173.5C512 139.5 484.5 112 450.5 112zm-77 61.5a46 46 0 1 1 -46.5 46A46 46 0 0 1 373 173.5zm-231.5 276c-17 0 -30 -13.5 -30 -30.5V354l90.5 -81a46.5 46.5 0 0 1 63.5 2L328.5 337l-113 112.5zM480 418.5a30.5 30.5 0 0 1 -30.5 30.5H259L376 333a46 46 0 0 1 59.5 0L480 370.5zM384 32H64A64 64 0 0 0 0 96V352a64 64 0 0 0 48 62V152a72 72 0 0 1 72 -72H446A64 64 0 0 0 384 32z" style="fill:currentcolor" /></symbol><symbol id="InputNumber" viewBox="0 0 512 512"><path d="M80.5 74.5h351c20.5 0 37 16.5 37 37V391.5c0 20.5 -16.5 37 -37 37H80.5c-20.5 0 -37 -16.5 -37 -37V111.5C43.5 91 60 74.5 80.5 74.5z" style="fill:none;stroke:currentcolor;stroke-width:12;stroke-miterlimit:10" /><path d="M85.5 300h14c3 0 5.5 -2.5 5.5 -5.5V215c0 -4 -4.5 -6.5 -8 -4.5l-13.5 7c-4 2 -8 -1 -8 -5v-4c0 -2.5 1.5 -4 3 -5l25 -12.5c0.5 -0.5 1.5 -0.5 2.5 -0.5h9c3 0 5.5 2.5 5.5 5.5v99c0 3 2.5 5.5 5.5 5.5h13.5c3 0 5.5 2.5 5.5 5.5v3c0 3 -2.5 5.5 -5.5 5.5h-54c-3 0 -5.5 -2.5 -5.5 -5.5v-3C80 302 82.5 300 85.5 300zM197 299.5H233c3 0 5.5 2.5 5.5 5.5v3c0 3 -2.5 5.5 -5.5 5.5H173c-3 0 -5.5 -2.5 -5.5 -5.5v-6.5c0 -1.5 0.5 -2.5 1.5 -4c9 -10.5 17.5 -19.5 24.5 -27.5c7 -8.5 12.5 -14 15 -17.5c5.5 -7 8.5 -12.5 11 -16.5c2 -4 3 -8.5 3 -13c0 -7 -2 -12.5 -5.5 -16.5c-4 -4 -9 -6 -15.5 -6c-4.5 0 -9.5 1 -15 3c-3 1 -5.5 2.5 -8.5 4c-4 2 -8 -1 -8 -4.5v-4c0 -2.5 1.5 -4 3 -5c4.5 -2 8.5 -3.5 13 -4.5c5.5 -1.5 10.5 -2.5 15.5 -2.5c11.5 0 20.5 3 27.5 9.5c7 6.5 10.5 15 10.5 25.5c0 5.5 -1.5 11 -3.5 16c-2.5 5.5 -6 11.5 -11.5 17.5c-3 3.5 -7 8.5 -13 15c-4 4.5 -10 11.5 -17.5 19.5C190 294 192 299.5 197 299.5zM323 242.5c-3 2.5 -3.5 7 0 9c3 2 5.5 4.5 7.5 7c4 5.5 6 12.5 6 20.5c0 11.5 -4 20.5 -11 27c-7 6.5 -17.5 9.5 -30 9.5c-5.5 0 -11 -0.5 -16.5 -1.5c-4.5 -1 -8.5 -2 -13 -3c-2.5 -0.5 -4 -3 -4 -5v-4c0 -4 4 -6.5 7.5 -5c3 1.5 5.5 2.5 8 3c5 1.5 10.5 2.5 15.5 2.5c8.5 0 15.5 -2.5 20 -6.5c4.5 -4 7 -10 7 -18c0 -7 -2.5 -13 -7 -17.5c-4.5 -4.5 -11 -6.5 -19 -6.5h-6.5c-3 0 -5.5 -2.5 -5.5 -5.5v-3c0 -3 2.5 -5.5 5.5 -5.5h6.5c7 0 13 -1.5 17 -5c4 -3.5 6 -8 6 -14c0 -6.5 -2 -11.5 -5.5 -15c-4 -3.5 -9 -5 -16 -5c-4.5 0 -9.5 0.5 -14.5 1.5c-3 0.5 -5.5 1.5 -8.5 2.5c-3.5 1.5 -7 -1.5 -7 -5v-3.5c0 -2.5 1.5 -4.5 4 -5.5c4.5 -1.5 8.5 -2.5 13 -3c5 -1 9.5 -1.5 13.5 -1.5c11.5 0 20.5 3 27.5 9s10.5 14 10.5 24.5c0 7 -2 12.5 -5.5 17C327 239.5 325.5 241 323 242.5zM432 315.5h-71.5c-2.5 0 -4.5 -2 -4.5 -4.5v-6c0 -2.5 2 -4.5 4.5 -4.5h71.5c2.5 0 4.5 2 4.5 4.5v6C436.5 313.5 434.5 315.5 432 315.5z" style="fill:currentcolor" /></symbol><symbol id="Input" viewBox="0 0 512 512"><path d="M80.5 74.5h351c20.5 0 37 16.5 37 37V391.5c0 20.5 -16.5 37 -37 37H80.5c-20.5 0 -37 -16.5 -37 -37V111.5C43.5 91 60 74.5 80.5 74.5z" style="fill:none;stroke:currentcolor;stroke-width:12;stroke-miterlimit:10" /><path d="M108.5 340v-2.5c0 -4.5 3.5 -7.5 7.5 -7.5h22.5c4.5 0 7.5 -3.5 7.5 -7.5V190c0 -4.5 -3.5 -7.5 -7.5 -7.5h-22.5c-4.5 0 -7.5 -3.5 -7.5 -7.5v-2.5c0 -4.5 3.5 -7.5 7.5 -7.5h80c4.5 0 7.5 3.5 7.5 7.5v2.5c0 4.5 -3.5 7.5 -7.5 7.5h-22c-4.5 0 -7.5 3.5 -7.5 7.5v131.5c0 4.5 3.5 7.5 7.5 7.5h22c4.5 0 7.5 3.5 7.5 7.5v2.5c0 4.5 -3.5 7.5 -7.5 7.5H116C112 347.5 108.5 344 108.5 340z" style="fill:currentcolor" /></symbol><symbol id="Language" viewBox="0 0 512 512"><path d="M281.5 112S257 206 199 277S80 384 80 384M256 336s-35 -27 -72 -75s-56 -85 -56 -85M48 112L336 112M192 64L192 112M301.5 384L434.5 384M272 448L368 224L464 448" style="fill:none;stroke:currentcolor;stroke-linecap:round;stroke-linejoin:round;stroke-width:32px" /></symbol><symbol id="Layout" viewBox="0 0 512 512"><path d="M464 426.5c0 20.5 -17 37.5 -37.5 37.5H202.5v-245.5h261.5V426.5zM170.5 218.5v245.5H85.5c-20.5 0 -37.5 -17 -37.5 -37.5V218.5H170.5zM48 85.5c0 -20.5 17 -37.5 37.5 -37.5h341.5c20.5 0 37.5 17 37.5 37.5v101.5h-416V85.5z" style="fill:currentcolor" /></symbol><symbol id="Loader" viewBox="0 0 512 512"><path d="M456.5 242.5l-26 -4a8 8 0 0 1 -6.5 -7c-0.5 -3 -1 -6.5 -1.5 -9.5a8 8 0 0 1 4 -8.5l23 -13a8 8 0 0 0 4 -10l-4 -11a8 8 0 0 0 -9.5 -5l-26 5a8 8 0 0 1 -8.5 -4q-2 -4 -5 -8.5a8 8 0 0 1 0.5 -9.5l17.5 -20a8 8 0 0 0 0.5 -10.5l-7.5 -9a8 8 0 0 0 -10.5 -1.5l-22.5 13.5a8 8 0 0 1 -9.5 -1c-2.5 -2 -5 -4 -7.5 -6a8 8 0 0 1 -2.5 -9l9.5 -24.5A8 8 0 0 0 365 79l-10 -6a8 8 0 0 0 -10.5 2L328 96a7 7 0 0 1 -8.5 2.5s-5.5 -2.5 -10 -3.5A8 8 0 0 1 304 87l0.5 -26.5a8 8 0 0 0 -6.5 -8.5l-11.5 -2a8 8 0 0 0 -9 5.5l-8.5 25a8 8 0 0 1 -8 5.5h-10a8 8 0 0 1 -8 -5.5l-8.5 -25a8 8 0 0 0 -9 -5.5l-11.5 2a8 8 0 0 0 -6.5 8.5l0.5 26.5a8 8 0 0 1 -5.5 7.5c-2.5 1 -7.5 3 -9.5 3.5c-3 1 -6 0 -9 -3L167 75A8 8 0 0 0 157 73l-10 6A8 8 0 0 0 143.5 89l9.5 25a8 8 0 0 1 -2.5 9c-2.5 2 -5 4 -7.5 6a8 8 0 0 1 -9.5 1L111 116a8 8 0 0 0 -10.5 1.5l-7.5 9a8 8 0 0 0 0.5 10.5l17.5 20a8 8 0 0 1 0.5 9.5q-2.5 4 -5 8.5a8 8 0 0 1 -8.5 4l-26 -5a8 8 0 0 0 -9.5 5l-4 11a8 8 0 0 0 4 10L85.5 213a8 8 0 0 1 4 8.5c-0.5 3 -1 6.5 -1.5 9.5a8 8 0 0 1 -6.5 7l-26 4a8 8 0 0 0 -7 8v11.5a8 8 0 0 0 7 8l26 4a8 8 0 0 1 6.5 7c0.5 3 1 6.5 1.5 9.5a8 8 0 0 1 -4 8.5L62.5 311.5a8 8 0 0 0 -4 10l4 11a8 8 0 0 0 9.5 5l26 -5a8 8 0 0 1 8.5 4q2.5 4 5 8.5a8 8 0 0 1 -0.5 9.5L93.5 374.5a8 8 0 0 0 -0.5 10.5l7.5 9a8 8 0 0 0 10.5 1.5l22.5 -13.5a8 8 0 0 1 9.5 1c2.5 2 5 4 7.5 6a8 8 0 0 1 2.5 9l-9.5 25a8 8 0 0 0 3.5 10l10 6a8 8 0 0 0 10.5 -2l17 -20.5c2 -2.5 5.5 -3.5 8 -2.5c3.5 1.5 5.5 2 10 3.5a8 8 0 0 1 5.5 7.5l-0.5 26.5a8 8 0 0 0 6.5 8.5l11.5 2a8 8 0 0 0 9 -5.5l8.5 -25a8 8 0 0 1 8 -5.5h10a8 8 0 0 1 8 5.5l8.5 25a8 8 0 0 0 9 5.5l11.5 -2a8 8 0 0 0 6.5 -8.5l-0.5 -26.5a8 8 0 0 1 5.5 -7.5c4 -1.5 7 -2.5 9.5 -3.5s6 -1 8.5 2l17 21A8 8 0 0 0 355 439l10 -6a8 8 0 0 0 3.5 -10l-9.5 -24.5a8 8 0 0 1 2.5 -9c2.5 -2 5 -4 7.5 -6a8 8 0 0 1 9.5 -1L401 395.5a8 8 0 0 0 10.5 -1.5l7.5 -9a8 8 0 0 0 -0.5 -10.5l-17.5 -20a8 8 0 0 1 -0.5 -9.5q2.5 -4 5 -8.5a8 8 0 0 1 8.5 -4l26 5a8 8 0 0 0 9.5 -5l4 -11a8 8 0 0 0 -4 -10l-23 -13a8 8 0 0 1 -4 -8.5c0.5 -3 1 -6.5 1.5 -9.5a8 8 0 0 1 6.5 -7l26 -4a8 8 0 0 0 7 -8V250A8.5 8.5 0 0 0 456.5 242.5zM256 112A144 144 0 0 1 395.5 220A16 16 0 0 1 380 240l-105 0a16 16 0 0 1 -14 -8l-52 -91.5a16 16 0 0 1 10 -23.5A147 147 0 0 1 256 112zM112 256a144 144 0 0 1 43.5 -103.5a16 16 0 0 1 25 3.5L233 248a16 16 0 0 1 0 16l-52.5 91.5a16 16 0 0 1 -25 3.5A144 144 0 0 1 112 256zM256 400a147 147 0 0 1 -38 -5a16 16 0 0 1 -10 -23.5l52.5 -91.5a16 16 0 0 1 14 -8H380a16 16 0 0 1 15.5 20A144 144 0 0 1 256 400z" style="fill:currentcolor" /></symbol><symbol id="Loading" viewBox="0 0 512 512"><path d="M433.5 327H78.5c-17.5 0 -32 -14.5 -32 -32v0c0 -17.5 14.5 -32 32 -32h355.5c17.5 0 32 14.5 32 32v0C465.5 313 451.5 327 433.5 327zM230 216l-3 -2c-1.5 -1 -2 -3 -1 -4.5l76.5 -107.5c1 -1.5 3 -2 4.5 -1l3 2c1.5 1 2 3 1 4.5L234.5 215.5C233.5 217 231.5 217 230 216z" style="fill:currentcolor" /><path d="M220.5 120.5A15 15 0 1 0 250.5 120.5A15 15 0 1 0 220.5 120.5zM282.5 198A15 15 0 1 0 312.5 198A15 15 0 1 0 282.5 198z" style="fill:none;stroke:currentcolor;stroke-width:4;stroke-miterlimit:10" /></symbol><symbol id="Logs" viewBox="0 0 512 512"><path d="M368 32H144A64 64 0 0 0 80 96V416a64 64 0 0 0 64 64H368a64 64 0 0 0 64 -64V96A64 64 0 0 0 368 32zM256 304H176a16 16 0 0 1 0 -32h80a16 16 0 0 1 0 32zm80 -80H176a16 16 0 0 1 0 -32H336a16 16 0 0 1 0 32zm0 -80H176a16 16 0 0 1 0 -32H336a16 16 0 0 1 0 32z" style="fill:currentcolor" /></symbol><symbol id="Menu" viewBox="0 0 512 512"><path d="M88 152L424 152M88 256L424 256M88 360L424 360" style="fill:none;stroke:currentcolor;stroke-linecap:round;stroke-miterlimit:10;stroke-width:48px" /></symbol><symbol id="Message" viewBox="0 0 512 512"><path d="M398 82A227.5 227.5 0 0 0 256 32C195 32 138 55.5 95.5 98C54.5 139.5 32 194 32 251.5A215.5 215.5 0 0 0 67.5 370l0 0.5c0.5 0.5 0.5 1 1 1s0.5 1 0.5 1l0 0.5c1 2 2 4.5 1 7L52.5 446.5a29 29 0 0 0 -1 7.5A25.5 25.5 0 0 0 77 480a29.5 29.5 0 0 0 10.5 -2.5l67.5 -24.5l1 -0.5a15 15 0 0 1 6 -1a15 15 0 0 1 5.5 1c1.5 0.5 16.5 6.5 32 10.5c13 3.5 39.5 9 61 9c59.5 0 115.5 -23 157 -65C457.5 366 480 310.5 480 251.5a213.5 213.5 0 0 0 -5 -45C465 158 437.5 113.5 398 82zM87.5 380h0zM160 288a32 32 0 1 1 32 -32A32 32 0 0 1 160 288zm96 0a32 32 0 1 1 32 -32A32 32 0 0 1 256 288zm96 0a32 32 0 1 1 32 -32A32 32 0 0 1 352 288z" style="fill:currentcolor" /></symbol><symbol id="Modal" viewBox="0 0 512 512"><path d="M431.5 67H80.5c-22.5 0 -40.5 18 -40.5 40.5v297c0 22.5 18 40.5 40.5 40.5h351c22.5 0 40.5 -18 40.5 -40.5V107.5C472 85 454 67 431.5 67zM249 157c-15 0 -27 -12 -27 -27c0 -15 12 -27 27 -27c15 0 27 12 27 27C276 145 264 157 249 157zM330 157c-15 0 -27 -12 -27 -27c0 -15 12 -27 27 -27c15 0 27 12 27 27C357 145 345 157 330 157zM411 157c-15 0 -27 -12 -27 -27c0 -15 12 -27 27 -27c15 0 27 12 27 27C438 145 426 157 411 157z" style="fill:currentcolor" /></symbol><symbol id="Notice" viewBox="0 0 512 512"><path d="M440 341.5c-1.5 -2 -3.5 -4 -5 -6c-22 -26.5 -35.5 -42.5 -35.5 -118c0 -39 -9.5 -71 -27.5 -95c-13.5 -17.5 -32 -31 -56 -41a3 3 0 0 1 -1 -0.5C306.5 51.5 283 32 256 32s-50.5 19.5 -59.5 48.5a3 3 0 0 1 -1 0.5c-56.5 23 -84 67.5 -84 136c0 75.5 -13.5 91.5 -35.5 118c-1.5 2 -3 4 -5 6a35 35 0 0 0 -4.5 37.5c6 13 19.5 21 34.5 21H410.5c15 0 28 -8 34 -21A35 35 0 0 0 440 341.5zM256 480a80 80 0 0 0 70.5 -42a4 4 0 0 0 -3.5 -6H189a4 4 0 0 0 -3.5 6A80 80 0 0 0 256 480z" style="fill:currentcolor" /></symbol><symbol id="Pagination" viewBox="0 0 512 512"><path d="M85.5 85.5a64 64 0 0 0 -64 64v213.5a64 64 0 0 0 64 64h149.5V85.5H85.5zm192 341.5h149.5a64 64 0 0 0 64 -64V149.5a64 64 0 0 0 -64 -64h-149.5v341.5zM185.5 155.5a21.5 21.5 0 0 1 0 30L115.5 256l70.5 70.5a21.5 21.5 0 1 1 -30 30l-85.5 -85.5a21.5 21.5 0 0 1 0 -30l85.5 -85.5a21.5 21.5 0 0 1 30 0zm140.5 30a21.5 21.5 0 0 1 30 -30l85.5 85.5a21.5 21.5 0 0 1 0 30l-85.5 85.5a21.5 21.5 0 0 1 -30 -30L396.5 256l-70.5 -70.5z" style="fill:currentcolor" /></symbol><symbol id="Popconfirm" viewBox="0 0 512 512"><path d="M408 48H104c-39.5 0 -72 32.5 -72 72v192c0 39.5 32.5 72 72 72h24v64c0 9 7 16 16 16c3.5 0 7.5 -1.5 10.5 -3.5l91.5 -76.5H408c39.5 0 72 -32.5 72 -72V120C480 80.5 447.5 48 408 48zM408 241l-75 75c-3 3 -8 3 -11 0l-40 -40c-3 -3 -3 -8 0 -11l8.5 -8.5c3 -3 8 -3 11 0l20.5 20.5c3 3 8 3 11 0l55 -55c3 -3 8 -3 11 0l8.5 8.5C411 233 411 238 408 241z" style="fill:currentcolor" /></symbol><symbol id="Poptip" viewBox="0 0 512 512"><path d="M408 48H104a72 72 0 0 0 -72 72V312a72 72 0 0 0 72 72h24v64a16 16 0 0 0 26.5 12.5L245.5 384H408a72 72 0 0 0 72 -72V120A72 72 0 0 0 408 48zM160 248a32 32 0 1 1 32 -32A32 32 0 0 1 160 248zm96 0a32 32 0 1 1 32 -32A32 32 0 0 1 256 248zm96 0a32 32 0 1 1 32 -32A32 32 0 0 1 352 248z" style="fill:currentcolor" /></symbol><symbol id="Progress" viewBox="0 0 512 512"><path d="M414.5 192h-317.5C61.5 192 33 220.5 33 256v0c0 35 28.5 63.5 63.5 63.5H414c35.5 0 64 -28.5 64 -64c0 -35 -28.5 -64 -64 -64zm34 64c0 17.5 -14.5 32 -32 32H311c5.5 -9.5 8.5 -20 8.5 -32c0 -11.5 -3 -23 -8.5 -32H416c17.5 0 32 14.5 32 32z" style="fill:currentcolor" /></symbol><symbol id="Radio" viewBox="0 0 512 512"><path d="M256 33C133 33 33 133 33 256c0 123 100 223 223 223c123 0 223 -100 223 -223C479 133 379 33 256 33zM256 336c-44 0 -80 -36 -80 -80s36 -80 80 -80s80 36 80 80S300 336 256 336z" style="fill:currentcolor" /></symbol><symbol id="Rate" viewBox="0 0 512 512"><path d="M454 176.5l-127 -18.5l-56.5 -115c-1.5 -3 -4 -5.5 -7 -7c-8 -4 -17.5 -0.5 -21.5 7.5l-56.5 115l-127 18.5c-3.5 0.5 -6.5 2 -9 4.5c-6 6.5 -6 16.5 0.5 22.5l92 89.5l-21.5 126.5c-0.5 3.5 0 7 1.5 10c4 8 14 11 21.5 6.5l113.5 -59.5l113.5 59.5c3 1.5 6.5 2 10 1.5c8.5 -1.5 14.5 -9.5 13 -18.5l-21.5 -126.5l92 -89.5c2.5 -2.5 4 -5.5 4.5 -9c1.5 -8.5 -4.5 -17 -13.5 -18z" style="fill:currentcolor" /></symbol><symbol id="RowCol" viewBox="0 0 512 512"><path d="m138 362c11 0 20 9 20 20.5l0 82a20 20.5 0 0 1 -20 20.5l-60 0a40 41 0 0 1 -40 -41l0 -61.5c0 -11.5 9 -20.5 20 -20.5l80 0zm157.5 0c12 0 22 10 22 22.5l0 77.5c0 12.5 -10 22.5 -22 22.5l-76 0c-12 0 -22 -10 -22 -22.5l0 -77.5c0 -12.5 10 -22.5 22 -22.5l76 0l0 0zm161.5 0c11 0 20 9 20 20.5l0 61.5a40 41 0 0 1 -40 41l-60 0a20 20.5 0 0 1 -20 -20.5l0 -82c0 -11.5 9 -20.5 20 -20.5l80 0zm-321 -163.5c12 0 22 10 22 22.5l0 77.5c0 12.5 -10 22.5 -22 22.5l-76 0c-12 0 -22 -10 -22 -22.5l0 -77.5c0 -12.5 10 -22.5 22 -22.5l76 0zm159.5 0c12 0 22 10 22 22.5l0 77.5c0 12.5 -10 22.5 -22 22.5l-76 0c-12 0 -22 -10 -22 -22.5l0 -77.5c0 -12.5 10 -22.5 22 -22.5l76 0zm159.5 0c12 0 22 10 22 22.5l0 77.5c0 12.5 -10 22.5 -22 22.5l-76 0c-12 0 -22 -10 -22 -22.5l0 -77.5c0 -12.5 10 -22.5 22 -22.5l76 0zm-317 -163.5c11 0 20 9 20 20.5l0 82a20 20.5 0 0 1 -20 20.5l-80 0a20 20.5 0 0 1 -20 -20.5l0 -61.5a40 41 0 0 1 40 -41l60 0zm157.5 0c12 0 22 10 22 22.5l0 77.5c0 12.5 -10 22.5 -22 22.5l-76 0c-12 0 -22 -10 -22 -22.5l0 -77.5c0 -12.5 10 -22.5 22 -22.5l76 0l0 0zm141.5 0a40 41 0 0 1 40 41l0 61.5a20 20.5 0 0 1 -20 20.5l-80 0a20 20.5 0 0 1 -20 -20.5l0 -82c0 -11.5 9 -20.5 20 -20.5l60 0z" style="fill:currentcolor" /></symbol><symbol id="Select" viewBox="0 0 512 512"><path d="M256 85.5a21.5 21.5 0 0 1 15 6.5l85.5 85.5a21.5 21.5 0 0 1 -30 30L256 137L185.5 207a21.5 21.5 0 0 1 -30 -30l85.5 -85.5A21.5 21.5 0 0 1 256 85.5zM155.5 305a21.5 21.5 0 0 1 30 0L256 375l70.5 -70.5a21.5 21.5 0 0 1 30 30l-85.5 85.5a21.5 21.5 0 0 1 -30 0l-85.5 -85.5a21.5 21.5 0 0 1 0 -30z" style="fill:currentcolor" /></symbol><symbol id="Skeleton" viewBox="0 0 512 512"><path d="M450.5 88H61.5C45.5 88 32 101.5 32 117.5v276.5c0 16.5 13.5 29.5 29.5 29.5h388.5c16.5 0 29.5 -13.5 29.5 -29.5V117.5C480 101.5 466.5 88 450.5 88zM94.5 205.5c-15.5 0 -28 -12.5 -28 -28s12.5 -28 28 -28c15.5 0 28 12.5 28 28S110 205.5 94.5 205.5zM251.5 329c0 7 -5.5 13 -13 13h-75c-7 0 -13 -5.5 -13 -13v-10c0 -7 5.5 -13 13 -13h75c7 0 13 5.5 13 13V329zM352 255.5c0 7 -5.5 13 -12.5 13H164c-7 0 -13 -5.5 -13 -13v-10c0 -7 5.5 -13 13 -13h175.5c7 0 13 5.5 13 13V255.5zM451 182c0 7 -5.5 13 -13 13H164c-7 0 -13 -5.5 -13 -13v-10c0 -7 5.5 -13 13 -13H438c7 0 13 5.5 13 13V182z" style="fill:currentcolor" /></symbol><symbol id="Slider" viewBox="0 0 512 512"><path d="M181.5 74.5A74.5 74.5 0 0 0 110 128H64a21.5 21.5 0 0 0 0 42.5h46A74.5 74.5 0 1 0 181.5 74.5zm0 106.5A32 32 0 1 1 213.5 149.5a32 32 0 0 1 -32 32zM298.5 149.5a21.5 21.5 0 0 1 21.5 -21.5h128a21.5 21.5 0 0 1 0 42.5h-128a21.5 21.5 0 0 1 -21.5 -21.5zm149.5 192h-46a74.5 74.5 0 1 0 0 42.5H448a21.5 21.5 0 0 0 0 -42.5zm-117.5 53.5A32 32 0 1 1 362.5 362.5a32 32 0 0 1 -32 32zM213.5 362.5a21.5 21.5 0 0 1 -21.5 21.5H64a21.5 21.5 0 0 1 0 -42.5h128a21.5 21.5 0 0 1 21.5 21.5z" style="fill:currentcolor" /></symbol><symbol id="Space" viewBox="0 0 512 512"><path d="M246 83h20.5c5 0 9 4 9 9v20.5c0 5 -4 9 -9 9h-20.5c-5 0 -9 -4 -9 -9l0 -20.5C237 87.5 241 83 246 83zM246 160h20.5c5 0 9 4 9 9v20.5c0 5 -4 9 -9 9h-20.5c-5 0 -9 -4 -9 -9l0 -20.5C237 164 241 160 246 160zM246 313.5h20.5c5 0 9 4 9 9v20.5c0 5 -4 9 -9 9h-20.5c-5 0 -9 -4 -9 -9l0 -20.5C237 317.5 241 313.5 246 313.5zM246 390.5h20.5c5 0 9 4 9 9v20.5c0 5 -4 9 -9 9h-20.5c-5 0 -9 -4 -9 -9l0 -20.5C237 394.5 241 390.5 246 390.5zM231 269.5l-140.5 100c-11.5 8 -26.5 0 -26.5 -14V156c0 -13.5 15.5 -22 26.5 -14l140.5 100C240.5 249 240.5 263 231 269.5zM280 269.5l140.5 100c11.5 8 26.5 0 26.5 -14V156c0 -14 -15.5 -22 -26.5 -14l-140.5 100C270.5 249 270.5 263 280 269.5z" style="fill:currentcolor" /></symbol><symbol id="Spin" viewBox="0 0 512 512"><path d="M256 42.5c118 0 213.5 95.5 213.5 213.5s-95.5 213.5 -213.5 213.5S42.5 374 42.5 256S138 42.5 256 42.5zm0 64a149.5 149.5 0 1 0 0 298.5a149.5 149.5 0 0 0 0 -298.5z" style="fill:currentcolor;fill-opacity:.05" /><path d="M407 407c83.5 -83.5 83.5 -218.5 0 -301.5c-83.5 -83.5 -218.5 -83.5 -301.5 0A32 32 0 0 0 150.5 150.5a149.5 149.5 0 1 1 211 211a32 32 0 0 0 45 45z" style="fill:currentcolor" /></symbol><symbol id="Ssr" viewBox="0 0 512 512"><path d="M341 344.5c6 -20.5 10 -44.5 11.5 -68A4.5 4.5 0 0 0 347.5 272H276.5a4.5 4.5 0 0 0 -4.5 4.5v55.5a4.5 4.5 0 0 0 4 4.5a273.5 273.5 0 0 1 59 11.5A4.5 4.5 0 0 0 341 344.5zM323.5 377.5a260 260 0 0 0 -46.5 -9a4.5 4.5 0 0 0 -5 4.5v65a4.5 4.5 0 0 0 7 3.5c16 -9.5 29 -25 41 -45.5c2 -3.5 5 -9 6.5 -12.5A4.5 4.5 0 0 0 323.5 377.5zM235.5 368.5a257 257 0 0 0 -46.5 9c-2.5 1 -3.5 4.5 -2.5 7c2 3.5 4 8 6 11.5c13 23 27 37.5 41 46a4.5 4.5 0 0 0 7 -3.5V372.5A4 4 0 0 0 235.5 368.5zM235.5 272H164.5a4.5 4.5 0 0 0 -4.5 4.5c1.5 23 5.5 47 11.5 68a4.5 4.5 0 0 0 5.5 3a272 272 0 0 1 59 -11.5a4.5 4.5 0 0 0 4 -4.5V276.5A4.5 4.5 0 0 0 235.5 272zM277 144a236 236 0 0 0 46.5 -9a4.5 4.5 0 0 0 3 -6c-2 -3.5 -4.5 -8.5 -6 -12c-12.5 -22 -26 -37.5 -41 -46a4.5 4.5 0 0 0 -7 3.5v65A4.5 4.5 0 0 0 277 144zM276.5 240H347.5a4.5 4.5 0 0 0 4.5 -4.5c-1.5 -23 -5.5 -48 -11 -68a4.5 4.5 0 0 0 -5.5 -3c-19 5.5 -39 10.5 -59 12a4.5 4.5 0 0 0 -4 4.5v55A4.5 4.5 0 0 0 276.5 240zM233.5 70.5c-15.5 8.5 -29 24.5 -41.5 46.5c-2 3.5 -4 8 -6 11.5a4.5 4.5 0 0 0 3 6a225.5 225.5 0 0 0 46.5 9a4.5 4.5 0 0 0 5 -4.5V74.5A4.5 4.5 0 0 0 233.5 70.5zM236 176.5c-20.5 -1.5 -40 -6 -59 -12a4.5 4.5 0 0 0 -5.5 3c-6 20.5 -9.5 45.5 -11 68a4.5 4.5 0 0 0 4.5 4.5H235.5a4.5 4.5 0 0 0 4.5 -4.5V180.5A4.5 4.5 0 0 0 236 176.5zM414.5 97.5A224 224 0 1 0 97.5 414.5A224 224 0 1 0 414.5 97.5zM176.5 431a219 219 0 0 1 -12.5 -19.5c-2 -3.5 -5 -9.5 -6.5 -13a7.5 7.5 0 0 0 -10.5 -3c-4.5 2.5 -10 5.5 -14 8.5a147.5 147.5 0 0 1 -23.5 -22.5a249 249 0 0 1 30.5 -18.5c2 -1 3 -2 2 -4a375 375 0 0 1 -14 -82a4.5 4.5 0 0 0 -4.5 -4H67a2 2 0 0 1 -2 -1.5A98.5 98.5 0 0 1 64 256a96.5 96.5 0 0 1 1 -14.5a2 2 0 0 1 2 -1.5H123.5c2.5 0 4 -1.5 4.5 -3.5a372.5 372.5 0 0 1 14 -82a4.5 4.5 0 0 0 -2 -5a260.5 260.5 0 0 1 -30 -18A170 170 0 0 1 133 108.5c4 2.5 9.5 5.5 13.5 8a8 8 0 0 0 11 -3.5c2 -4 4 -8 6 -12a222 222 0 0 1 12.5 -20A185 185 0 0 1 256 64c29 0 56 7 80.5 18.5a202 202 0 0 1 12 19c2.5 4.5 5.5 10.5 7.5 15.5a4.5 4.5 0 0 0 6 2c5.5 -3 11 -6.5 16.5 -9.5a171.5 171.5 0 0 1 23 23a245 245 0 0 1 -29 17.5a4.5 4.5 0 0 0 -2 5a348.5 348.5 0 0 1 14 81.5a4.5 4.5 0 0 0 4.5 4l56.5 0a2 2 0 0 1 2 1.5a117.5 117.5 0 0 1 0 28.5a2 2 0 0 1 -2 1.5l-56.5 0a4.5 4.5 0 0 0 -4.5 4a367.5 367.5 0 0 1 -14 81.5a4.5 4.5 0 0 0 2 5c5 2.5 10.5 5.5 15.5 8.5s9.5 6 14 9.5a172.5 172.5 0 0 1 -23 23c-2.5 -1.5 -5.5 -3.5 -8 -5c-1.5 -1 -5 -3 -6.5 -4c-4 -2 -8 -0.5 -10 3.5s-5 9.5 -7 13.5a212.5 212.5 0 0 1 -12.5 19.5C311 442.5 285 448 256 448S201 442.5 176.5 431z" style="fill:currentcolor" /></symbol><symbol id="Start" viewBox="0 0 512 512"><path d="M464 256c0 -115 -93 -208 -208 -208S48 141 48 256s93 208 208 208S464 371 464 256zM212 330V182a16 16 0 0 1 26 -12.5l89 74a16 16 0 0 1 0 24.5l-89 74A16 16 0 0 1 212 330z" style="fill:currentcolor" /></symbol><symbol id="Switch" viewBox="0 0 512 512"><path d="M336 124H176c-73 0 -132 59 -132 132s59 132 132 132h160c73 0 132 -59 132 -132S409 124 336 124zM336 352.5H176c-53.5 0 -96.5 -43.5 -96.5 -96.5s43.5 -96.5 96.5 -96.5h160c53.5 0 96.5 43.5 96.5 96.5S389.5 352.5 336 352.5zM329 196c-35 0 -64 28 -64 63.5s28 64 63.5 64s64 -28 64 -63.5c0 -0.5 0 -0.5 0 -0.5C392 224.5 363.5 196 329 196z" style="fill:currentcolor" /></symbol><symbol id="Table" viewBox="0 0 512 512"><path d="M164.5 393v-55c0 -5 -4 -9 -9 -9h-91.5c-5 0 -9 4 -9 9v55c0 5 4 9 9 9h91.5c5 0 9 -4 9 -9zm0 -109.5v-55c0 -5 -4 -9 -9 -9h-91.5c-5 0 -9 4 -9 9v55c0 5 4 9 9 9h91.5c5 0 9 -4 9 -9zm146.5 109.5v-55c0 -5 -4 -9 -9 -9h-91.5c-5 0 -9 4 -9 9v55c0 5 4 9 9 9h91.5c5 0 9 -4 9 -9zm-146.5 -219.5v-55c0 -5 -4 -9 -9 -9h-91.5c-5 0 -9 4 -9 9v55c0 5 4 9 9 9h91.5c5 0 9 -4 9 -9zm146.5 109.5v-55c0 -5 -4 -9 -9 -9h-91.5c-5 0 -9 4 -9 9v55c0 5 4 9 9 9h91.5c5 0 9 -4 9 -9zm146.5 109.5v-55c0 -5 -4 -9 -9 -9h-91.5c-5 0 -9 4 -9 9v55c0 5 4 9 9 9h91.5c5 0 9 -4 9 -9zm-146.5 -219.5v-55c0 -5 -4 -9 -9 -9h-91.5c-5 0 -9 4 -9 9v55c0 5 4 9 9 9h91.5c5 0 9 -4 9 -9zm146.5 109.5v-55c0 -5 -4 -9 -9 -9h-91.5c-5 0 -9 4 -9 9v55c0 5 4 9 9 9h91.5c5 0 9 -4 9 -9zm0 -109.5v-55c0 -5 -4 -9 -9 -9h-91.5c-5 0 -9 4 -9 9v55c0 5 4 9 9 9h91.5c5 0 9 -4 9 -9zm36.5 -91.5v311c0 25 -20.5 45.5 -45.5 45.5h-384A46 46 0 0 1 18.5 393v-311C18.5 57 39 36.5 64 36.5h384C473 36.5 493.5 57 493.5 82.5z" style="fill:currentcolor" /></symbol><symbol id="Tabs" viewBox="0 0 512 512"><path d="M313 125H230.5c-12.5 0 -22 -10 -22 -22v-15c0 -12.5 10 -22 22 -22h82.5c12.5 0 22 10 22 22v15C335 115 325 125 313 125zM476 167.5l-1 254c0 13.5 -11 24 -24.5 24H52c-14 0 -25 -11.5 -25 -25V93c0 -15 12 -27 27 -27h112.5c13.5 0 24.5 11 24.5 24.5l0.5 28.5c0 13.5 11 24.5 24.5 24.5l236 0C465.5 143.5 476 154 476 167.5zM455.5 125h-86c-11.5 0 -20.5 -9 -20.5 -20.5v-18c0 -11.5 9 -20.5 20.5 -20.5H455.5c11.5 0 20.5 9 20.5 20.5v18C476 116 467 125 455.5 125z" style="fill:currentcolor" /></symbol><symbol id="Tag" viewBox="0 0 512 512"><path d="M467 45A44.5 44.5 0 0 0 435.5 32H312.5a30.5 30.5 0 0 0 -21.5 9L45 286.5a45 45 0 0 0 0 63.5l117 117a45 45 0 0 0 63.5 0l245.5 -245.5A30.5 30.5 0 0 0 480 200v-123A44 44 0 0 0 467 45zM384 160a32 32 0 1 1 32 -32A32 32 0 0 1 384 160z" style="fill:currentcolor" /></symbol><symbol id="Theme" viewBox="0 0 512 512"><path d="M256 96c33 0 60.5 -26 64 -58c0.5 -3 -3 -6 -6 -6h0a13 13 0 0 0 -4.5 1c0 0 -21 8 -53.5 8s-53 -8 -53.5 -8a16 16 0 0 0 -5.5 -1h0A5.5 5.5 0 0 0 192 38C195.5 70 223 96 256 96zM485.5 90L356 44.5a4 4 0 0 0 -5.5 3a96 96 0 0 1 -189.5 0A4 4 0 0 0 156 44.5L26.5 90A16 16 0 0 0 16.5 108l16.5 88A16 16 0 0 0 47 209l49 5.5a8 8 0 0 1 7 8l-7.5 241a16 16 0 0 0 9 15A17.5 17.5 0 0 0 112 480H400a17.5 17.5 0 0 0 7.5 -1.5a16 16 0 0 0 9 -15l-7.5 -241a8 8 0 0 1 7 -8l49 -5.5A16 16 0 0 0 479 196l16.5 -88A16 16 0 0 0 485.5 90z" style="fill:currentcolor" /></symbol><symbol id="Timeline" viewBox="0 0 512 512"><path d="M69 287V225c24 -6 42 -28 42 -54c0 -26 -18 -48 -42 -54V34c0 -7.5 -6 -13.5 -13.5 -13.5s-13.5 6 -13.5 13.5v83.5C18 123.5 0 145.5 0 171.5c0 26 18 48 42 54v62c-24 6 -42 28 -42 54s18 48 42 54v83.5c0 7.5 6 13.5 13.5 13.5s13.5 -6 13.5 -13.5V394.5c24 -6 42 -28 42 -54s-18 -48 -42 -54zM30 171.5c0 -14 11.5 -25.5 25.5 -25.5s25.5 11.5 25.5 25.5s-11.5 25.5 -25.5 25.5s-25.5 -11.5 -25.5 -25.5zm25.5 195c-14 0 -25.5 -11.5 -25.5 -25.5s11.5 -25.5 25.5 -25.5s25.5 11.5 25.5 25.5s-11.5 25.5 -25.5 25.5zM471 141.5H176c-8.5 0 -15 -6.5 -15 -15s6.5 -15 15 -15h295c8.5 0 15 6.5 15 15s-6.5 15 -15 15zM385.5 228.5H174c-7 0 -13 -5.5 -13 -13v-4.5c0 -7 6 -13 13 -13h212c7 0 13 6 13 13v4.5c0 7 -5.5 13 -12.5 13zM471 312.5H176c-8.5 0 -15 -6.5 -15 -15s6.5 -15 15 -15h295c8.5 0 15 6.5 15 15s-6.5 15 -15 15zM385.5 399.5H174c-7 0 -13 -5.5 -13 -13v-4.5c0 -7 6 -13 13 -13h212c7 0 13 6 13 13v4.5c0 7 -5.5 13 -12.5 13z" style="fill:currentcolor" /></symbol><symbol id="Tooltip" viewBox="0 0 512 512"><path d="M408 48H104c-39.5 0 -72 32.5 -72 72v192c0 39.5 32.5 72 72 72h24h70c7 0 14 3.5 18 9.5l21 31.5c9 13 28 12.5 36.5 -0.5l18 -29.5c4 -6.5 10.5 -10 18 -10.5c23.5 -0.5 76 -1 98 -1c5 0 30.5 -0.5 51 -21c13 -13 21 -31 21 -51V120C480 80.5 447.5 48 408 48zM160 248c-17.5 0 -32 -14.5 -32 -32s14.5 -32 32 -32s32 14.5 32 32S177.5 248 160 248zM256 248c-17.5 0 -32 -14.5 -32 -32s14.5 -32 32 -32s32 14.5 32 32S273.5 248 256 248zM352 248c-17.5 0 -32 -14.5 -32 -32s14.5 -32 32 -32s32 14.5 32 32S369.5 248 352 248z" style="fill:currentcolor" /></symbol><symbol id="TreeSelect" viewBox="0 0 512 512"><path d="M149.5 170.5v106.5h277.5v-21.5H149.5v-42.5h277.5c23.5 0 42.5 19 42.5 42.5v21.5c0 23.5 -19 42.5 -42.5 42.5H149.5v42.5h277.5c23.5 0 42.5 19 42.5 42.5v21.5c0 23.5 -19 42.5 -42.5 42.5H149.5c-23.5 0 -42.5 -19 -42.5 -42.5V170.5H85.5c-23.5 0 -42.5 -19 -42.5 -42.5V85.5c0 -23.5 19 -42.5 42.5 -42.5h277.5c23.5 0 42.5 19 42.5 42.5v42.5c0 23.5 -19 42.5 -42.5 42.5H149.5zm0 256h277.5v-21.5H149.5v21.5zM85.5 85.5v42.5h277.5V85.5H85.5z" style="fill:currentcolor" /></symbol><symbol id="Tree" viewBox="0 0 512 512"><path d="M339 303.5c-17 0 -32.5 -9 -40.5 -23.5H197v94.5h101.5c8.5 -14.5 24 -23.5 40.5 -23.5c26 0 47.5 21 47.5 47.5c0 26 -21 47.5 -47.5 47.5c-17 0 -32.5 -9 -40.5 -23.5H173c-13 0 -23.5 -10.5 -23.5 -23.5v-243c-22.5 -13 -30.5 -42 -17.5 -65S174 60 197 73s30.5 42 17.5 65c-4 7 -10 13 -17.5 17.5v77.5h101.5c8.5 -14.5 24 -23.5 40.5 -23.5c26 0 47.5 21 47.5 47.5S365 303.5 339 303.5z" style="fill:currentcolor" /></symbol><symbol id="Upload" viewBox="0 0 512 512"><path d="M473.5 210c-14 -10.5 -31 -18 -49.5 -22a16 16 0 0 1 -12 -12c-8 -34.5 -24.5 -64.5 -49.5 -87C334 62.5 296 48 256 48c-35.5 0 -68 11 -94.5 32a150 150 0 0 0 -42 53a16 16 0 0 1 -11.5 9c-26.5 5.5 -51 17 -69.5 33C13.5 197.5 0 227 0 261.5c0 34.5 14.5 66 41 89c25 21.5 59 33.5 95 33.5H240V230.5l-36.5 36.5a16 16 0 0 1 -23 -0.5c-6 -6.5 -5 -16.5 1 -22.5l63.5 -63.5a16 16 0 0 1 22.5 0L331 244c6.5 6.5 6.5 16.5 0.5 23a16 16 0 0 1 -22.5 0L272 230.5V384H396c31.5 0 60 -9 80.5 -25c23.5 -18 35.5 -44 35.5 -75C512 254.5 498.5 228.5 473.5 210zM240 448a16 16 0 1 0 32 0V384H240z" style="fill:currentcolor" /></symbol><symbol id="Vue" viewBox="0 0 512 512"><path d="M256 144L200.5 48L121 48L256 281.5L391 48L311.5 48L256 144zM409.5 48L256 313.5L102.5 48L15.5 48L256 464L496.5 48L409.5 48z" style="fill:currentcolor" /></symbol></svg>