<?xml version="1.0" encoding="utf-8"?>
<!-- Generator: Adobe Illustrator 26.0.0, SVG Export Plug-In . SVG Version: 6.00 Build 0)  -->
<svg version="1.1" id="图层_1" xmlns="http://www.w3.org/2000/svg" xmlns:xlink="http://www.w3.org/1999/xlink" x="0px" y="0px"
	 viewBox="0 0 200 200" style="enable-background:new 0 0 200 200;" xml:space="preserve">
<path d="M65.4,119.6L29.8,83.9c-2.7-2.7-2.7-7.1,0-9.8l8.5-8.5c2-2,4.9-2.6,7.5-1.5l26.7,10.8c2.3,0.9,4.9,0.6,6.8-1l44.5-34.6
	c3.3-2.6,3.6-7.4,0.6-10.4l-3.7-3.7c-2.7-2.7-2.7-7.1,0-9.8l6.8-6.8c2.7-2.7,7.1-2.7,9.8,0l11.3,11.3l0,0l32.4,32.4l0,0.1l11.3,11.3
	c2.7,2.7,2.7,7.1,0,9.8l-6.8,6.8c-2.7,2.7-7.1,2.7-9.8,0l-3.7-3.7c-2.9-2.9-7.8-2.6-10.4,0.7l-34.6,44.6c-1.5,1.9-1.9,4.6-1,6.8
	l10.8,26.7c1,2.6,0.4,5.5-1.5,7.5l-8.5,8.5c-2.7,2.7-7.1,2.7-9.8,0l-30.7-30.7c-2.7-2.7-7.1-2.7-9.8,0l-40.1,40.1
	c-2.7,2.7-7.1,2.7-9.8,0l-6.4-6.4c-2.7-2.7-2.7-7.1,0-9.8L65.4,119.6L65.4,119.6z"/>
</svg>
