<svg t="1772373664481" class="icon" viewBox="0 0 1024 1024" version="1.1"
  xmlns="http://www.w3.org/2000/svg" p-id="1587" width="128" height="128">
  <path
    d="M489.898667 960.981333c-25.770667 0-45.482667-20.394667-45.482667-47.018666V316.885333c0-26.624 19.712-46.976 45.482667-46.976 25.770667 0 45.482667 20.352 45.482666 46.976v597.077334c0 25.045333-19.712 47.018667-45.482666 47.018666z"
    fill="#2c2c2c" p-id="1588"></path>
  <path
    d="M489.898667 981.333333C271.573333 981.333333 83.626667 819.925333 42.666667 598.954667c-3.029333-14.08 1.536-28.16 9.088-39.168a44.8 44.8 0 0 1 34.858666-17.237334h162.218667c25.813333 0 45.482667 20.394667 45.482667 47.018667 0 26.624-19.669333 47.018667-45.482667 47.018667h-101.546667c50.005333 148.864 186.453333 250.709333 342.613334 250.709333 156.16 0 292.608-101.845333 342.613333-250.709333h-103.082667c-25.770667 0-45.482667-20.394667-45.482666-47.018667 0-26.624 19.712-47.018667 45.482666-47.018667h162.218667c13.653333 0 25.813333 6.272 34.901333 17.237334 9.088 10.965333 12.117333 25.088 9.088 39.168C896.213333 819.925333 709.76 981.333333 489.898667 981.333333zM489.898667 346.666667c-81.877333 0-147.029333-68.949333-147.029334-151.978667C342.869333 110.037333 409.557333 42.666667 489.898667 42.666667c81.877333 0 147.072 68.949333 147.072 152.021333 0 84.608-65.194667 151.978667-147.072 151.978667z m0-209.962667c-30.293333 0-56.064 26.624-56.064 57.984 0 31.317333 25.770667 57.984 56.064 57.984 30.293333 0 56.106667-26.666667 56.106666-58.026667 0-31.317333-24.277333-57.941333-56.106666-57.941333z"
    fill="#2c2c2c" p-id="1589"></path>
</svg>