<?xml version="1.0" encoding="utf-8"?>
<!-- Generator: Adobe Illustrator 26.0.0, SVG Export Plug-In . SVG Version: 6.00 Build 0)  -->
<svg version="1.1" id="图层_1" xmlns="http://www.w3.org/2000/svg" xmlns:xlink="http://www.w3.org/1999/xlink" x="0px" y="0px"
	 viewBox="0 0 200 200" style="enable-background:new 0 0 200 200;" xml:space="preserve">
<path d="M176.1,10H24.5c-8,0-14.2,5.5-14.2,12.7v118.5c0,6.8,6.2,12.7,14.2,12.7h151.6c7.6,0,14.2-6,14.2-12.7V22.7
	C190.2,15.9,184.1,10,176.1,10z M60.7,32.2c7.3,0,13.8,6.1,13.8,13.9S68.3,60,60.7,60c-7.6-0.1-13.8-6.3-13.8-13.9
	C46.8,38.2,53.3,32.2,60.7,32.2L60.7,32.2z M50.8,137.7c-1.4,0-2.7-0.5-3.9-1.3c-2.6-2.2-2.6-5.2-0.4-7.8l26.7-37.8
	c2.2-2.2,5.2-2.6,7.8-0.9l23.3,16.5l41.8-45.2c2.1-2.2,12.5-13.5,18.5-0.9v76.9C164.4,137.7,50.8,137.7,50.8,137.7z"/>
<g>
	<path d="M22.8,181c0,5.5,4.5,10,10,10s10-4.5,10-10s-4.5-10-10-10S22.8,175.5,22.8,181L22.8,181z"/>
	<path d="M67.8,181c0,5.5,4.5,10,10,10s10-4.5,10-10l0,0c0-5.5-4.5-10-10-10S67.8,175.5,67.8,181L67.8,181z"/>
	<path d="M112.8,181c0,5.5,4.5,10,10,10s10-4.5,10-10s-4.5-10-10-10S112.8,175.5,112.8,181L112.8,181z"/>
	<path d="M157.8,181c0,5.5,4.5,10,10,10s10-4.5,10-10s-4.5-10-10-10S157.8,175.5,157.8,181L157.8,181z"/>
</g>
</svg>
