<?xml version="1.0" encoding="utf-8"?>
<!-- Generator: Adobe Illustrator 26.0.0, SVG Export Plug-In . SVG Version: 6.00 Build 0)  -->
<svg version="1.1" id="图层_1" xmlns="http://www.w3.org/2000/svg" xmlns:xlink="http://www.w3.org/1999/xlink" x="0px" y="0px"
	 viewBox="0 0 200 200" style="enable-background:new 0 0 200 200;" xml:space="preserve">
<path d="M154,28H46c-9.9,0-18,8.1-18,18v108c0,9.9,8.1,18,18,18h108c9.9,0,18-8.1,18-18V46C172,36.1,163.9,28,154,28z M143.3,87.5
	l-48.7,48.7c-2,2-5.2,2-7.2,0L61.2,110c-2-2-2-5.2,0-7.2l5.5-5.5c2-2,5.2-2,7.2,0l13.4,13.4c2,2,5.2,2,7.2,0l35.9-35.9
	c2-2,5.2-2,7.2,0l5.5,5.5C145.3,82.3,145.3,85.5,143.3,87.5z"/>
</svg>
