<?xml version="1.0" encoding="utf-8"?>
<!-- Generator: Adobe Illustrator 26.0.0, SVG Export Plug-In . SVG Version: 6.00 Build 0)  -->
<svg version="1.1" id="图层_1" xmlns="http://www.w3.org/2000/svg" xmlns:xlink="http://www.w3.org/1999/xlink" x="0px" y="0px"
	 viewBox="0 0 200 200" style="enable-background:new 0 0 200 200;" xml:space="preserve">
<style type="text/css">
	.st0{fill:none;stroke:#000000;stroke-width:12;stroke-miterlimit:10;}
</style>
<path class="st0" d="M160,162.2H40c-12.6,0-22.9-10.2-22.9-22.9V60.7c0-12.6,10.2-22.9,22.9-22.9h120c12.6,0,22.9,10.2,22.9,22.9
	v78.6C182.9,151.9,172.7,162.2,160,162.2z"/>
<path d="M150.7,141h-46c-2.8,0-5-2.2-5-5v-3.4c0-2.8,2.2-5,5-5h46c2.8,0,5,2.2,5,5v3.4C155.7,138.8,153.5,141,150.7,141z"/>
<path d="M99.6,103.1c0-0.1-0.1-0.2-0.1-0.3c0-0.1,0-0.1-0.1-0.2c-0.2-0.4-0.4-0.9-0.6-1.3c-0.2-0.3-0.4-0.6-0.7-0.9
	c-0.6-0.8-1.4-1.5-2.3-2l-43.2-25c-2.4-1.4-5.6-0.6-7,1.9L44,78.1c-1.4,2.4-0.6,5.6,1.9,7l35.5,20.5l-35.6,20.6
	c-2.4,1.4-3.2,4.4-1.8,6.8l1.7,3c1.4,2.4,4.4,3.2,6.8,1.8l43.2-25c0.9-0.5,1.7-1.3,2.4-2.1c0.3-0.3,0.5-0.6,0.8-1v0
	C100.1,107.7,100.3,105.2,99.6,103.1z"/>
</svg>
