<?xml version="1.0" standalone="no"?><!DOCTYPE svg PUBLIC "-//W3C//DTD SVG 1.1//EN" "http://www.w3.org/Graphics/SVG/1.1/DTD/svg11.dtd"><svg t="1770546387516" class="icon" viewBox="0 0 1024 1024" version="1.1" xmlns="http://www.w3.org/2000/svg" p-id="23178" xmlns:xlink="http://www.w3.org/1999/xlink" width="200" height="200"><path d="M853.3504 170.6496A170.6496 170.6496 0 0 1 1024 341.3504v341.2992a170.6496 170.6496 0 0 1-170.6496 170.7008H170.6496A170.6496 170.6496 0 0 1 0 682.6496V341.3504a170.6496 170.6496 0 0 1 170.6496-170.7008h682.7008z m0 64H170.6496c-58.88 0-106.6496 47.7696-106.6496 106.7008v341.2992c0 58.88 47.7696 106.7008 106.6496 106.7008h682.7008c58.88 0 106.6496-47.7696 106.6496-106.7008V341.3504c0-58.88-47.7696-106.7008-106.6496-106.7008z m0 106.7008v341.2992h-170.7008V341.3504h170.7008z m-512 0v341.2992H170.6496V341.3504h170.7008z m256 0v341.2992H426.6496V341.3504h170.7008z" p-id="23179" fill="#2c2c2c"></path></svg>