<?xml version="1.0" standalone="no"?><!DOCTYPE svg PUBLIC "-//W3C//DTD SVG 1.1//EN" "http://www.w3.org/Graphics/SVG/1.1/DTD/svg11.dtd"><svg t="1770546254495" class="icon" viewBox="0 0 1024 1024" version="1.1" xmlns="http://www.w3.org/2000/svg" p-id="13589" xmlns:xlink="http://www.w3.org/1999/xlink" width="200" height="200"><path d="M538 0H100C44.8 0 0 44.8 0 100v200c0 55.2 44.8 100 100 100h438c55.2 0 100-44.8 100-100V100C638 44.8 593.2 0 538 0zM231 455H100C44.8 455 0 499.8 0 555v369c0 55.2 44.8 100 100 100h131c55.2 0 100-44.8 100-100V555c0-55.2-44.8-100-100-100z m693 0H486c-55.2 0-100 44.8-100 100v369c0 55.2 44.8 100 100 100h438c55.2 0 100-44.8 100-100V555c0-55.2-44.8-100-100-100z m0-455H793c-55.2 0-100 44.8-100 100v200c0 55.2 44.8 100 100 100h131c55.2 0 100-44.8 100-100V100c0-55.2-44.8-100-100-100z" fill="#231815" p-id="13590"></path></svg>