<?xml version="1.0" encoding="utf-8"?>
<!-- Generator: Adobe Illustrator 26.0.0, SVG Export Plug-In . SVG Version: 6.00 Build 0)  -->
<svg version="1.1" id="图层_1" xmlns="http://www.w3.org/2000/svg" xmlns:xlink="http://www.w3.org/1999/xlink" x="0px" y="0px"
	 viewBox="0 0 512 512" style="enable-background:new 0 0 512 512;" xml:space="preserve">
<path d="M185,240H87c-30.4,0-55-24.6-55-55V87c0-30.4,24.6-55,55-55h98c30.4,0,55,24.6,55,55v98C240,215.4,215.4,240,185,240z"/>
<path d="M425,240h-98c-30.4,0-55-24.6-55-55V87c0-30.4,24.6-55,55-55h98c30.4,0,55,24.6,55,55v98C480,215.4,455.4,240,425,240z"/>
<path d="M185,480H87c-30.4,0-55-24.6-55-55v-98c0-30.4,24.6-55,55-55h98c30.4,0,55,24.6,55,55v98C240,455.4,215.4,480,185,480z"/>
<path d="M425,480h-98c-30.4,0-55-24.6-55-55v-98c0-30.4,24.6-55,55-55h98c30.4,0,55,24.6,55,55v98C480,455.4,455.4,480,425,480z"/>
</svg>
