<svg version="1.1" viewBox="0 0 512 512" xmlns="http://www.w3.org/2000/svg" xmlns:xlink="http://www.w3.org/1999/xlink"><path d="M461.5 141.8c-6.7-15.55-16.3-29.45-28.45-41.4-12.15-11.9-26.25-21.2-42-27.75-16.25-6.75-33.45-10.15-51.2-10.15-24.65 0-48.7 6.75-69.6 19.5-5 3.05-9.75 6.4-14.25 10.05-4.5-3.65-9.25-7-14.25-10.05-20.9-12.75-44.95-19.5-69.6-19.5-17.75 0-34.95 3.4-51.2 10.15-15.7 6.5-29.85 15.85-42 27.75-12.2 11.95-21.75 25.85-28.45 41.4-6.95 16.15-10.5 33.3-10.5 50.95 0 16.65 3.4 34 10.15 51.65 5.65 14.75 13.75 30.05 24.1 45.5 16.4 24.45 38.95 49.95 66.95 75.8 46.4 42.85 92.35 72.45 94.3 73.65l11.85 7.6c5.25 3.35 12 3.35 17.25 0l11.85-7.6c1.95-1.25 47.85-30.8 94.3-73.65 28-25.85 50.55-51.35 66.95-75.8 10.35-15.45 18.5-30.75 24.1-45.5 6.75-17.65 10.15-35 10.15-51.65 0.05-17.65-3.5-34.8-10.45-50.95z" style="fill:currentcolor;"/></svg>