<?xml version="1.0" encoding="utf-8"?>
<!-- Generator: Adobe Illustrator 26.0.0, SVG Export Plug-In . SVG Version: 6.00 Build 0)  -->
<svg version="1.1" id="图层_1" xmlns="http://www.w3.org/2000/svg" xmlns:xlink="http://www.w3.org/1999/xlink" x="0px" y="0px"
	 viewBox="0 0 200 200" style="enable-background:new 0 0 200 200;" xml:space="preserve">
<style type="text/css">
	.st0{fill:none;stroke:#000000;stroke-width:12;stroke-miterlimit:10;}
</style>
<path class="st0" d="M31.5,29.1h137.1c8,0,14.5,6.5,14.5,14.5V153c0,8-6.5,14.5-14.5,14.5H31.5c-8,0-14.5-6.5-14.5-14.5V43.5
	C17,35.5,23.5,29.1,31.5,29.1z"/>
<g>
	<path d="M33.4,117.1h5.4c1.2,0,2.1-1,2.1-2.1V83.9c0-1.6-1.7-2.6-3.1-1.8l-5.3,2.7c-1.5,0.7-3.2-0.4-3.2-2v-1.5
		c0-0.9,0.5-1.6,1.2-2l9.8-4.9c0.2-0.1,0.6-0.2,1-0.2h3.6c1.2,0,2.1,1,2.1,2.1v38.7c0,1.2,1,2.1,2.1,2.1h5.3c1.2,0,2.1,1,2.1,2.1
		v1.2c0,1.2-1,2.1-2.1,2.1h-21c-1.2,0-2.1-1-2.1-2.1v-1.2C31.3,118,32.2,117.1,33.4,117.1z"/>
	<path d="M76.9,117H91c1.2,0,2.1,1,2.1,2.1v1.2c0,1.2-1,2.1-2.1,2.1H67.5c-1.2,0-2.1-1-2.1-2.1v-2.6c0-0.5,0.2-1,0.5-1.5
		c3.6-4.1,6.8-7.6,9.5-10.7c2.8-3.3,4.8-5.5,5.9-6.9c2.1-2.7,3.4-4.8,4.2-6.4c0.7-1.6,1.1-3.3,1.1-5c0-2.7-0.7-4.8-2.2-6.4
		c-1.5-1.6-3.6-2.3-6.1-2.3c-1.8,0-3.8,0.4-5.9,1.1c-1.1,0.4-2.2,0.9-3.4,1.5c-1.5,0.7-3.1-0.4-3.1-1.8v-1.6c0-0.9,0.5-1.6,1.2-2
		c1.7-0.7,3.3-1.4,5-1.8c2.1-0.5,4.1-0.9,6-0.9c4.4,0,8.1,1.2,10.8,3.8c2.7,2.6,4.1,5.9,4.1,9.9c0,2.1-0.5,4.2-1.4,6.3
		c-0.9,2.1-2.3,4.4-4.4,6.9c-1.1,1.4-2.8,3.3-5,5.9c-1.6,1.8-3.9,4.4-6.8,7.6C74.2,114.8,75,117,76.9,117z"/>
	<path d="M126.2,94.8c-1.2,0.9-1.4,2.7,0,3.6c1.1,0.7,2.1,1.7,2.9,2.7c1.6,2.2,2.3,4.9,2.3,8.1c0,4.4-1.5,8-4.3,10.6
		c-2.8,2.6-6.8,3.8-11.8,3.8c-2.1,0-4.3-0.2-6.4-0.6c-1.7-0.4-3.3-0.7-5-1.2c-0.9-0.2-1.5-1.1-1.5-2v-1.6c0-1.5,1.6-2.6,2.9-2
		c1.1,0.5,2.1,0.9,3.2,1.1c2,0.6,4.1,0.9,6,0.9c3.4,0,6-0.9,7.9-2.5c1.8-1.6,2.7-3.9,2.7-7c0-2.8-0.9-5-2.7-6.8
		c-1.8-1.7-4.3-2.5-7.4-2.5h-2.6c-1.2,0-2.1-1-2.1-2.1v-1.1c0-1.2,1-2.1,2.1-2.1h2.6c2.8,0,5-0.6,6.6-2c1.6-1.4,2.3-3.2,2.3-5.5
		c0-2.5-0.7-4.4-2.2-5.8c-1.5-1.4-3.6-2-6.3-2c-1.8,0-3.7,0.2-5.6,0.6c-1.1,0.2-2.1,0.5-3.3,0.9c-1.4,0.5-2.8-0.5-2.8-2v-1.4
		c0-1,0.6-1.8,1.6-2.1c1.8-0.5,3.4-0.9,5-1.1c2-0.4,3.7-0.5,5.2-0.5c4.4,0,8,1.2,10.7,3.6s4.1,5.5,4.1,9.5c0,2.7-0.7,4.9-2.1,6.6
		C127.7,93.6,127.1,94.2,126.2,94.8z"/>
</g>
<path d="M168.8,123.2h-27.9c-0.9,0-1.7-0.8-1.7-1.7v-2.4c0-0.9,0.8-1.7,1.7-1.7h27.9c0.9,0,1.7,0.8,1.7,1.7v2.4
	C170.5,122.4,169.7,123.2,168.8,123.2z"/>
</svg>
