<?xml version="1.0" encoding="utf-8"?>
<!-- Generator: Adobe Illustrator 26.0.0, SVG Export Plug-In . SVG Version: 6.00 Build 0)  -->
<svg version="1.1" id="图层_1" xmlns="http://www.w3.org/2000/svg" xmlns:xlink="http://www.w3.org/1999/xlink" x="0px" y="0px"
	 viewBox="0 0 200 200" style="enable-background:new 0 0 200 200;" xml:space="preserve">
<style type="text/css">
	.st0{fill:none;stroke:#000000;stroke-width:12;stroke-miterlimit:10;}
</style>
<path class="st0" d="M31.5,29.1h137.1c8,0,14.5,6.5,14.5,14.5V153c0,8-6.5,14.5-14.5,14.5H31.5c-8,0-14.5-6.5-14.5-14.5V43.5
	C17,35.5,23.5,29.1,31.5,29.1z"/>
<g>
	<path d="M42.4,132.8v-1c0-1.7,1.3-3,3-3h8.7c1.7,0,3-1.3,3-3V74.3c0-1.7-1.3-3-3-3h-8.7c-1.7,0-3-1.3-3-3v-1c0-1.7,1.3-3,3-3h31.3
		c1.7,0,3,1.3,3,3v1c0,1.7-1.3,3-3,3h-8.6c-1.7,0-3,1.3-3,3v51.4c0,1.7,1.3,3,3,3h8.6c1.7,0,3,1.3,3,3v1c0,1.7-1.3,3-3,3H45.4
		C43.7,135.8,42.4,134.4,42.4,132.8z"/>
</g>
</svg>
