<?xml version="1.0" encoding="utf-8"?>
<!-- Generator: Adobe Illustrator 26.0.0, SVG Export Plug-In . SVG Version: 6.00 Build 0)  -->
<svg version="1.1" id="图层_1" xmlns="http://www.w3.org/2000/svg" xmlns:xlink="http://www.w3.org/1999/xlink" x="0px" y="0px"
	 viewBox="0 0 200 200" style="enable-background:new 0 0 200 200;" xml:space="preserve">
<style type="text/css">
	.st0{fill:none;stroke:#000000;stroke-width:4;stroke-miterlimit:10;}
</style>
<path d="M169.4,127.8H30.6c-6.9,0-12.5-5.6-12.5-12.5v0c0-6.9,5.6-12.5,12.5-12.5h138.9c6.9,0,12.5,5.6,12.5,12.5v0
	C181.9,122.2,176.3,127.8,169.4,127.8z"/>
<circle class="st0" cx="92" cy="47" r="5.9"/>
<circle class="st0" cx="116.2" cy="77.3" r="5.9"/>
<path d="M89.8,84.4l-1.1-0.8c-0.6-0.4-0.7-1.2-0.3-1.8l29.8-41.9c0.4-0.6,1.2-0.7,1.8-0.3l1.1,0.8c0.6,0.4,0.7,1.2,0.3,1.8
	L91.6,84.1C91.2,84.7,90.4,84.8,89.8,84.4z"/>
</svg>
