<?xml version="1.0" encoding="utf-8"?>
<!-- Generator: Adobe Illustrator 26.0.0, SVG Export Plug-In . SVG Version: 6.00 Build 0)  -->
<svg version="1.1" id="图层_1" xmlns="http://www.w3.org/2000/svg" xmlns:xlink="http://www.w3.org/1999/xlink" x="0px" y="0px"
	 viewBox="0 0 200 200" style="enable-background:new 0 0 200 200;" xml:space="preserve">
<path d="M168.5,26.2H31.5c-8.7,0-15.8,7.1-15.8,15.8v116c0,8.7,7.1,15.8,15.8,15.8h137.1c8.7,0,15.8-7.1,15.8-15.8V42
	C184.4,33.3,177.3,26.2,168.5,26.2z M97.3,61.4c-5.8,0-10.5-4.7-10.5-10.5c0-5.8,4.7-10.5,10.5-10.5c5.8,0,10.5,4.7,10.5,10.5
	C107.8,56.6,103.1,61.4,97.3,61.4z M128.9,61.4c-5.8,0-10.5-4.7-10.5-10.5c0-5.8,4.7-10.5,10.5-10.5c5.8,0,10.5,4.7,10.5,10.5
	C139.5,56.6,134.7,61.4,128.9,61.4z M160.5,61.4c-5.8,0-10.5-4.7-10.5-10.5c0-5.8,4.7-10.5,10.5-10.5c5.8,0,10.5,4.7,10.5,10.5
	C171.1,56.6,166.4,61.4,160.5,61.4z"/>
</svg>
