<?xml version="1.0" encoding="utf-8"?>
<!-- Generator: Adobe Illustrator 26.0.0, SVG Export Plug-In . SVG Version: 6.00 Build 0)  -->
<svg version="1.1" id="图层_1" xmlns="http://www.w3.org/2000/svg" xmlns:xlink="http://www.w3.org/1999/xlink" x="0px" y="0px"
	 viewBox="0 0 512 512" style="enable-background:new 0 0 512 512;" xml:space="preserve">
<path d="M408,48H104c-39.7,0-72,32.3-72,72v192c0,39.7,32.3,72,72,72h24v64c0,8.8,7.2,16,16,16c3.7,0,7.4-1.3,10.3-3.7l91.5-76.3
	H408c39.7,0,72-32.3,72-72V120C480,80.3,447.7,48,408,48z M408.2,241l-74.8,74.8c-3.1,3.1-8,3.1-11.1,0l-40.2-40.2
	c-3.1-3.1-3.1-8,0-11.1l8.4-8.4c3.1-3.1,8-3.1,11.1,0l20.6,20.6c3.1,3.1,8,3.1,11.1,0l55.1-55.1c3.1-3.1,8-3.1,11.1,0l8.4,8.4
	C411.2,233,411.2,237.9,408.2,241z"/>
</svg>
