<svg version="1.1" viewBox="0 0 512 512" xmlns="http://www.w3.org/2000/svg" xmlns:xlink="http://www.w3.org/1999/xlink"><path d="M454.05 176.55l-126.95-18.45-56.75-115.05c-1.55-3.15-4.1-5.7-7.25-7.25-7.9-3.9-17.5-0.65-21.45 7.25l-56.75 115.05-126.95 18.45c-3.5 0.5-6.7 2.15-9.15 4.65-6.15 6.35-6.05 16.45 0.3 22.65l91.85 89.55-21.7 126.45c-0.6 3.45-0.05 7.05 1.6 10.15 4.1 7.8 13.8 10.85 21.6 6.7l113.55-59.7 113.55 59.7c3.1 1.65 6.7 2.2 10.15 1.6 8.7-1.5 14.55-9.75 13.05-18.45l-21.7-126.45 91.85-89.55c2.5-2.45 4.15-5.65 4.65-9.15 1.35-8.75-4.75-16.85-13.5-18.15z" style="fill:currentcolor;"/></svg>