<svg viewBox="0 0 512 512"
  xmlns="http://www.w3.org/2000/svg" xmlns:xlink="http://www.w3.org/1999/xlink"
>
  <path fill="#000000"
    d="m137.86639,362.20524c11.00871,0 19.92849,9.14344 19.92849,20.4282l0,81.75563a19.94938,20.44962 0 0 1 -19.92849,20.44962l-59.82724,0a39.89875,40.89923 0 0 1 -39.87786,-40.89923l0,-61.30602c0,-11.28476 8.91978,-20.4282 19.94938,-20.4282l79.75573,0zm157.50607,0c12.11585,0 21.93387,10.06421 21.93387,22.48387l0,77.66571c0,12.41966 -9.81802,22.48387 -21.93387,22.48387l-75.76585,0c-12.11585,0 -21.93387,-10.06421 -21.93387,-22.48387l0,-77.66571c0,-12.41966 9.81802,-22.48387 21.93387,-22.48387l75.78674,0l-0.02089,0zm161.51684,0c11.0296,0 19.94937,9.14344 19.94937,20.4282l0,61.32743a39.89875,40.89923 0 0 1 -39.89875,40.87782l-59.80635,0a19.94938,20.44962 0 0 1 -19.92849,-20.44962l0,-81.75563c0,-11.28476 8.91978,-20.4282 19.92849,-20.4282l79.75573,0zm-321.02829,-163.53268c12.11585,0 21.93387,10.06421 21.93387,22.48387l0,77.68713c0,12.41966 -9.81802,22.48387 -21.93387,22.48387l-75.76584,0c-12.11585,0 -21.93387,-10.06421 -21.93387,-22.48387l0,-77.68713c0,-12.41966 9.81802,-22.48387 21.93387,-22.48387l75.76584,0zm159.53235,0c12.11585,0 21.93387,10.06421 21.93387,22.48387l0,77.68713c0,12.41966 -9.81802,22.48387 -21.93387,22.48387l-75.78674,0c-12.11585,0 -21.93387,-10.06421 -21.93387,-22.48387l0,-77.68713c0,-12.41966 9.81802,-22.48387 21.93387,-22.48387l75.78674,0zm159.51145,0c12.11585,0 21.93387,10.06421 21.93387,22.48387l0,77.68713c0,12.41966 -9.81802,22.48387 -21.93387,22.48387l-75.76585,0c-12.11585,0 -21.93387,-10.06421 -21.93387,-22.48387l0,-77.68713c0,-12.41966 9.81802,-22.48387 21.93387,-22.48387l75.76585,0zm-317.03841,-163.51126c11.00871,0 19.92849,9.14344 19.92849,20.44962l0,81.75563a19.94938,20.44962 0 0 1 -19.92849,20.4282l-79.75573,0a19.94938,20.44962 0 0 1 -19.94938,-20.4282l0,-61.32743a39.89875,40.89923 0 0 1 39.89876,-40.87782l59.80635,0zm157.50607,0c12.11585,0 21.93387,10.06421 21.93387,22.48387l0,77.66571c0,12.41966 -9.81802,22.48387 -21.93387,22.48387l-75.76585,0c-12.11585,0 -21.93387,-10.06421 -21.93387,-22.48387l0,-77.66571c0,-12.41966 9.81802,-22.48387 21.93387,-22.48387l75.78674,0l-0.02089,0zm141.58835,0a39.89875,40.89923 0 0 1 39.87786,40.89923l0,61.30602a19.94938,20.44962 0 0 1 -19.94937,20.4282l-79.75573,0a19.94938,20.44962 0 0 1 -19.92849,-20.4282l0,-81.75563c0,-11.30618 8.91978,-20.44962 19.92849,-20.44962l59.82724,0z" />

</svg>