<?xml version="1.0" encoding="utf-8"?>
<!-- Generator: Adobe Illustrator 26.0.0, SVG Export Plug-In . SVG Version: 6.00 Build 0)  -->
<svg version="1.1" id="图层_1" xmlns="http://www.w3.org/2000/svg" xmlns:xlink="http://www.w3.org/1999/xlink" x="0px" y="0px"
	 viewBox="0 0 512 512" style="enable-background:new 0 0 512 512;" xml:space="preserve">
<path d="M450.3,88H61.7C45.3,88,32,101.3,32,117.7v276.6c0,16.4,13.3,29.7,29.7,29.7h388.6c16.4,0,29.7-13.3,29.7-29.7V117.7
	C480,101.3,466.7,88,450.3,88z M94.4,205.3c-15.5,0-28-12.5-28-28s12.5-28,28-28c15.5,0,28,12.5,28,28S109.9,205.3,94.4,205.3z
	 M251.6,329.2c0,7-5.7,12.8-12.8,12.8h-75c-7.1,0-12.8-5.7-12.8-12.8v-10c0-7.1,5.7-12.8,12.8-12.8h75c7.1,0,12.8,5.7,12.8,12.8
	V329.2z M352.1,255.6c0.1,7.1-5.7,12.8-12.7,12.8H163.8c-7.1,0-12.8-5.7-12.8-12.8v-10c0-7.1,5.7-12.8,12.8-12.8h175.5
	c7.1,0,12.8,5.7,12.8,12.8V255.6z M450.8,182c0,7.1-5.7,12.8-12.8,12.8H163.8c-7.1,0-12.8-5.7-12.8-12.8v-10
	c0-7.1,5.7-12.8,12.8-12.8H438c7.1,0,12.8,5.7,12.8,12.8V182z"/>
</svg>
