<?xml version="1.0" standalone="no"?><!DOCTYPE svg PUBLIC "-//W3C//DTD SVG 1.1//EN" "http://www.w3.org/Graphics/SVG/1.1/DTD/svg11.dtd"><svg t="1655170484503" class="icon" viewBox="0 0 1024 1024" version="1.1" xmlns="http://www.w3.org/2000/svg" p-id="27557" xmlns:xlink="http://www.w3.org/1999/xlink" width="200" height="200"><defs><style type="text/css"></style></defs><path d="M362.666667 149.333333A149.077333 149.077333 0 0 0 220.288 256H128a42.666667 42.666667 0 0 0 0 85.333333h92.288A149.034667 149.034667 0 1 0 362.666667 149.333333z m0 213.333334A64 64 0 1 1 426.666667 298.666667a64 64 0 0 1-64 64zM597.333333 298.666667a42.666667 42.666667 0 0 1 42.666667-42.666667h256a42.666667 42.666667 0 0 1 0 85.333333h-256a42.666667 42.666667 0 0 1-42.666667-42.666666z m298.666667 384h-92.288a149.333333 149.333333 0 1 0 0 85.333333H896a42.666667 42.666667 0 0 0 0-85.333333z m-234.666667 106.666666A64 64 0 1 1 725.333333 725.333333a64 64 0 0 1-64 64zM426.666667 725.333333a42.666667 42.666667 0 0 1-42.666667 42.666667H128a42.666667 42.666667 0 0 1 0-85.333333h256a42.666667 42.666667 0 0 1 42.666667 42.666666z" fill="#000000" p-id="27558"></path></svg>