<?xml version="1.0" encoding="utf-8"?>
<!-- Generator: Adobe Illustrator 26.0.0, SVG Export Plug-In . SVG Version: 6.00 Build 0)  -->
<svg version="1.1" id="图层_1" xmlns="http://www.w3.org/2000/svg" xmlns:xlink="http://www.w3.org/1999/xlink" x="0px" y="0px"
	 viewBox="0 0 200 200" style="enable-background:new 0 0 200 200;" xml:space="preserve">
<path d="M96,32.5h8c1.9,0,3.5,1.6,3.5,3.5v8c0,1.9-1.6,3.5-3.5,3.5h-8c-1.9,0-3.5-1.6-3.5-3.5l0-8C92.5,34.1,94.1,32.5,96,32.5z"/>
<path d="M96,62.5h8c1.9,0,3.5,1.6,3.5,3.5v8c0,1.9-1.6,3.5-3.5,3.5h-8c-1.9,0-3.5-1.6-3.5-3.5l0-8C92.5,64.1,94.1,62.5,96,62.5z"/>
<path d="M96,122.5h8c1.9,0,3.5,1.6,3.5,3.5v8c0,1.9-1.6,3.5-3.5,3.5h-8c-1.9,0-3.5-1.6-3.5-3.5l0-8C92.5,124.1,94.1,122.5,96,122.5z
	"/>
<path d="M96,152.5h8c1.9,0,3.5,1.6,3.5,3.5v8c0,1.9-1.6,3.5-3.5,3.5h-8c-1.9,0-3.5-1.6-3.5-3.5l0-8C92.5,154.1,94.1,152.5,96,152.5z
	"/>
<path d="M90.3,105.3l-54.9,39.1c-4.4,3.1-10.4,0-10.4-5.4V60.9c0-5.3,6-8.5,10.4-5.4l54.9,39.1C94,97.2,94,102.7,90.3,105.3z"/>
<path d="M109.3,105.3l54.9,39.1c4.4,3.1,10.4,0,10.4-5.4V60.9c0-5.4-6-8.5-10.4-5.4l-54.9,39.1C105.6,97.2,105.6,102.7,109.3,105.3z
	"/>
</svg>
