<?xml version="1.0" encoding="utf-8"?>
<!-- Generator: Adobe Illustrator 26.0.0, SVG Export Plug-In . SVG Version: 6.00 Build 0)  -->
<svg version="1.1" id="图层_1" xmlns="http://www.w3.org/2000/svg" xmlns:xlink="http://www.w3.org/1999/xlink" x="0px" y="0px"
	 viewBox="0 0 388 388" style="enable-background:new 0 0 388 388;" xml:space="preserve">
<path d="M254.5,94H133.5c-55.2,0-100,44.8-100,100s44.8,100,100,100h121.1c55.2,0,100-44.8,100-100S309.8,94,254.5,94z M254.5,267.3
	H133.5c-40.5,0-73.3-32.8-73.3-73.3s32.8-73.3,73.3-73.3h121.1c40.5,0,73.3,32.8,73.3,73.3S295,267.3,254.5,267.3z"/>
<path d="M249.2,148.4c-26.7-0.1-48.4,21.3-48.5,48s21.3,48.4,48,48.5s48.4-21.3,48.5-48c0-0.2,0-0.4,0-0.5
	C297.1,170,275.6,148.5,249.2,148.4z"/>
</svg>
