<?xml version="1.0" encoding="utf-8"?>
<!-- Generator: Adobe Illustrator 26.0.0, SVG Export Plug-In . SVG Version: 6.00 Build 0)  -->
<svg version="1.1" id="图层_1" xmlns="http://www.w3.org/2000/svg" xmlns:xlink="http://www.w3.org/1999/xlink" x="0px" y="0px"
	 viewBox="0 0 200 200" style="enable-background:new 0 0 200 200;" xml:space="preserve">
<path d="M122.3,48.8H90c-4.8,0-8.6-3.9-8.6-8.6v-5.8c0-4.8,3.9-8.6,8.6-8.6h32.3c4.8,0,8.6,3.9,8.6,8.6v5.8
	C130.9,45,127,48.8,122.3,48.8z"/>
<path d="M186,65.5l-0.4,99.2c0,5.2-4.3,9.4-9.5,9.4H20.4c-5.4,0-9.8-4.4-9.8-9.8V36.4c0-5.9,4.7-10.6,10.6-10.6h44
	c5.2,0,9.5,4.2,9.5,9.5l0.1,11.2c0,5.2,4.3,9.5,9.5,9.5l92.2,0C181.8,56,186,60.2,186,65.5z"/>
<path d="M178,48.8h-33.5c-4.4,0-8-3.6-8-8v-7c0-4.4,3.6-8,8-8H178c4.4,0,8,3.6,8,8v7C186,45.3,182.4,48.8,178,48.8z"/>
</svg>
