<?xml version="1.0" encoding="utf-8"?>
<!-- Generator: Adobe Illustrator 26.0.0, SVG Export Plug-In . SVG Version: 6.00 Build 0)  -->
<svg version="1.1" id="图层_1" xmlns="http://www.w3.org/2000/svg" xmlns:xlink="http://www.w3.org/1999/xlink" x="0px" y="0px"
	 viewBox="0 0 512 512" style="enable-background:new 0 0 512 512;" xml:space="preserve">
<path d="M408,48H104c-39.7,0-72,32.3-72,72v192c0,39.7,32.3,72,72,72h24h70c7.2,0,14,3.6,18,9.6l21.2,31.7
	c8.8,13.1,28.1,12.7,36.4-0.7l18-29.3c3.9-6.3,10.7-10.2,18.2-10.3c23.6-0.3,76.1-0.9,98.2-0.9c4.8,0,30.3-0.5,50.9-21.1
	c13-13,21.1-31,21.1-50.9V120C480,80.3,447.7,48,408,48z M160,248c-17.7,0-32-14.3-32-32s14.3-32,32-32s32,14.3,32,32
	S177.7,248,160,248z M256,248c-17.7,0-32-14.3-32-32s14.3-32,32-32s32,14.3,32,32S273.7,248,256,248z M352,248
	c-17.7,0-32-14.3-32-32s14.3-32,32-32s32,14.3,32,32S369.7,248,352,248z"/>
</svg>
