<?xml version="1.0" encoding="utf-8"?>
<!-- Generator: Adobe Illustrator 26.0.0, SVG Export Plug-In . SVG Version: 6.00 Build 0)  -->
<svg version="1.1" id="图层_1" xmlns="http://www.w3.org/2000/svg" xmlns:xlink="http://www.w3.org/1999/xlink" x="0px" y="0px"
	 viewBox="0 0 200 200" style="enable-background:new 0 0 200 200;" xml:space="preserve">
<path d="M132.4,118.5c-6.6,0-12.6-3.5-15.9-9.2H76.9v37h39.6c3.3-5.7,9.3-9.2,15.9-9.2c10.2,0,18.5,8.3,18.5,18.5
	c0,10.2-8.3,18.5-18.5,18.5c-6.6,0-12.6-3.5-15.9-9.2H67.6c-5.1,0-9.2-4.1-9.2-9.2v-95c-8.8-5.1-11.9-16.4-6.8-25.3
	S68,23.4,76.9,28.5s11.9,16.4,6.8,25.3c-1.6,2.8-4,5.1-6.8,6.8v30.3h39.6c3.3-5.7,9.3-9.2,15.9-9.2c10.2,0,18.5,8.3,18.5,18.5
	S142.6,118.5,132.4,118.5z"/>
</svg>
