<?xml version="1.0" standalone="no"?><!DOCTYPE svg PUBLIC "-//W3C//DTD SVG 1.1//EN" "http://www.w3.org/Graphics/SVG/1.1/DTD/svg11.dtd"><svg t="1770545366921" class="icon" viewBox="0 0 1024 1024" version="1.1" xmlns="http://www.w3.org/2000/svg" p-id="6414" xmlns:xlink="http://www.w3.org/1999/xlink" width="200" height="200"><path d="M298.666667 341.333333v213.333334h554.666666v-42.666667H298.666667v-85.333333h554.666666c46.933333 0 85.333333 38.4 85.333334 85.333333v42.666667c0 46.933333-38.4 85.333333-85.333334 85.333333H298.666667v85.333333h554.666666c46.933333 0 85.333333 38.4 85.333334 85.333334v42.666666c0 46.933333-38.4 85.333333-85.333334 85.333334H298.666667c-46.933333 0-85.333333-38.4-85.333334-85.333334V341.333333H170.666667c-46.933333 0-85.333333-38.4-85.333334-85.333333V170.666667c0-46.933333 38.4-85.333333 85.333334-85.333334h554.666666c46.933333 0 85.333333 38.4 85.333334 85.333334v85.333333c0 46.933333-38.4 85.333333-85.333334 85.333333H298.666667z m0 512h554.666666v-42.666666H298.666667v42.666666zM170.666667 170.666667v85.333333h554.666666V170.666667H170.666667z" fill="#2c2c2c" p-id="6415"></path></svg>