<svg xmlns="http://www.w3.org/2000/svg" xmlns:xlink="http://www.w3.org/1999/xlink" viewBox="0 0 132.84 161.24"><defs><linearGradient id="a" x1="502.1" y1="233.14" x2="640.72" y2="371.76" gradientUnits="userSpaceOnUse"><stop offset="0" stop-color="#30c5fa"/><stop offset="0.17" stop-color="#2bbcf6"/><stop offset="0.46" stop-color="#1fa2eb"/><stop offset="0.82" stop-color="#0b79d8"/><stop offset="1" stop-color="#0062ce"/></linearGradient></defs><title>logo</title><path d="M538.08,239v54.67l62-64.67A55.77,55.77,0,0,1,607.7,222a14.09,14.09,0,0,1,8.35-2.24q6.8,0,11,4a12.92,12.92,0,0,1,4.21,9.73q0,6.91-7.13,13.72l-38.4,36.38L630,347a79.3,79.3,0,0,1,7,11.54,22.46,22.46,0,0,1,2.34,9.63,12,12,0,0,1-4.1,9q-4.1,3.82-11.11,3.83-6.6,0-10.74-2.82a24.11,24.11,0,0,1-7-7.5q-2.88-4.68-5.11-8.51l-37.33-57.43-25.85,24.78v32.22q0,9.79-4.46,14.52a15.09,15.09,0,0,1-11.49,4.74,15.45,15.45,0,0,1-7.77-2.13,14.89,14.89,0,0,1-5.74-5.75,18.83,18.83,0,0,1-1.81-6.91c-.21-2.62-.32-6.42-.32-11.38V239q0-9.57,4.21-14.36t11.43-4.79a15,15,0,0,1,11.54,4.74Q538.08,229.27,538.08,239Z" transform="translate(-506.49 -219.8)"/><path d="M538.08,239v54.67l62-64.67A55.77,55.77,0,0,1,607.7,222a14.09,14.09,0,0,1,8.35-2.24q6.8,0,11,4a12.92,12.92,0,0,1,4.21,9.73q0,6.91-7.13,13.72l-38.4,36.38L630,347a79.3,79.3,0,0,1,7,11.54,22.46,22.46,0,0,1,2.34,9.63,12,12,0,0,1-4.1,9q-4.1,3.82-11.11,3.83-6.6,0-10.74-2.82a24.11,24.11,0,0,1-7-7.5q-2.88-4.68-5.11-8.51l-37.33-57.43-25.85,24.78v32.22q0,9.79-4.46,14.52a15.09,15.09,0,0,1-11.49,4.74,15.45,15.45,0,0,1-7.77-2.13,14.89,14.89,0,0,1-5.74-5.75,18.83,18.83,0,0,1-1.81-6.91c-.21-2.62-.32-6.42-.32-11.38V239q0-9.57,4.21-14.36t11.43-4.79a15,15,0,0,1,11.54,4.74Q538.08,229.27,538.08,239Z" transform="translate(-506.49 -219.8)" style="fill:url(#a)"/></svg>